<?xml version="1.0" encoding="UTF-8" standalone="no"?>
<!DOCTYPE svg PUBLIC "-//W3C//DTD SVG 1.1//EN"
 "http://www.w3.org/Graphics/SVG/1.1/DTD/svg11.dtd">
<!-- Generated by graphviz version 2.43.0 (0)
 -->
<!-- Title: snakemake_dag Pages: 1 -->
<svg width="3555pt" height="548pt"
 viewBox="0.00 0.00 3555.35 548.00" xmlns="http://www.w3.org/2000/svg" xmlns:xlink="http://www.w3.org/1999/xlink">
<g id="graph0" class="graph" transform="scale(1 1) rotate(0) translate(4 544)">
<title>snakemake_dag</title>
<polygon fill="white" stroke="transparent" points="-4,4 -4,-544 3551.35,-544 3551.35,4 -4,4"/>
<!-- 0 -->
<g id="node1" class="node">
<title>0</title>
<path fill="none" stroke="#566bd8" stroke-width="2" d="M1796.85,-36C1796.85,-36 1651.85,-36 1651.85,-36 1645.85,-36 1639.85,-30 1639.85,-24 1639.85,-24 1639.85,-12 1639.85,-12 1639.85,-6 1645.85,0 1651.85,0 1651.85,0 1796.85,0 1796.85,0 1802.85,0 1808.85,-6 1808.85,-12 1808.85,-12 1808.85,-24 1808.85,-24 1808.85,-30 1802.85,-36 1796.85,-36"/>
<text text-anchor="middle" x="1724.35" y="-15.5" font-family="sans" font-size="10.00">process_all_gi_scores_and_hits</text>
</g>
<!-- 1 -->
<g id="node2" class="node">
<title>1</title>
<path fill="none" stroke="#d89556" stroke-width="2" d="M183.35,-180C183.35,-180 43.35,-180 43.35,-180 37.35,-180 31.35,-174 31.35,-168 31.35,-168 31.35,-156 31.35,-156 31.35,-150 37.35,-144 43.35,-144 43.35,-144 183.35,-144 183.35,-144 189.35,-144 195.35,-150 195.35,-156 195.35,-156 195.35,-168 195.35,-168 195.35,-174 189.35,-180 183.35,-180"/>
<text text-anchor="middle" x="113.35" y="-159.5" font-family="sans" font-size="10.00">calculate_discriminant_scores</text>
</g>
<!-- 1&#45;&gt;0 -->
<g id="edge1" class="edge">
<title>1&#45;&gt;0</title>
<path fill="none" stroke="grey" stroke-width="2" d="M124.42,-143.75C139.23,-122.42 167.68,-87.07 202.35,-72 267.83,-43.53 1306.63,-25.37 1629.42,-20.39"/>
<polygon fill="grey" stroke="grey" stroke-width="2" points="1629.73,-23.89 1639.68,-20.23 1629.62,-16.89 1629.73,-23.89"/>
</g>
<!-- 49 -->
<g id="node50" class="node">
<title>49</title>
<path fill="none" stroke="#d8d356" stroke-width="2" d="M256.85,-108C256.85,-108 223.85,-108 223.85,-108 217.85,-108 211.85,-102 211.85,-96 211.85,-96 211.85,-84 211.85,-84 211.85,-78 217.85,-72 223.85,-72 223.85,-72 256.85,-72 256.85,-72 262.85,-72 268.85,-78 268.85,-84 268.85,-84 268.85,-96 268.85,-96 268.85,-102 262.85,-108 256.85,-108"/>
<text text-anchor="middle" x="240.35" y="-87.5" font-family="sans" font-size="10.00">call_hits</text>
</g>
<!-- 1&#45;&gt;49 -->
<g id="edge103" class="edge">
<title>1&#45;&gt;49</title>
<path fill="none" stroke="grey" stroke-width="2" d="M144.42,-143.88C162.09,-134.14 184.34,-121.87 202.96,-111.61"/>
<polygon fill="grey" stroke="grey" stroke-width="2" points="204.71,-114.64 211.78,-106.75 201.33,-108.51 204.71,-114.64"/>
</g>
<!-- 2 -->
<g id="node3" class="node">
<title>2</title>
<path fill="none" stroke="#78d856" stroke-width="2" d="M200.85,-324C200.85,-324 29.85,-324 29.85,-324 23.85,-324 17.85,-318 17.85,-312 17.85,-312 17.85,-300 17.85,-300 17.85,-294 23.85,-288 29.85,-288 29.85,-288 200.85,-288 200.85,-288 206.85,-288 212.85,-294 212.85,-300 212.85,-300 212.85,-312 212.85,-312 212.85,-318 206.85,-324 200.85,-324"/>
<text text-anchor="middle" x="115.35" y="-309" font-family="sans" font-size="10.00">compute_genetic_interaction_scores</text>
<text text-anchor="middle" x="115.35" y="-298" font-family="sans" font-size="10.00">score: Gamma.OI.R1</text>
</g>
<!-- 2&#45;&gt;1 -->
<g id="edge37" class="edge">
<title>2&#45;&gt;1</title>
<path fill="none" stroke="grey" stroke-width="2" d="M51.4,-287.95C33.77,-280 16.68,-268.5 6.35,-252 -2.13,-238.44 -2.08,-229.59 6.35,-216 14.74,-202.49 27.7,-192.32 41.75,-184.7"/>
<polygon fill="grey" stroke="grey" stroke-width="2" points="43.71,-187.63 51.1,-180.05 40.59,-181.37 43.71,-187.63"/>
</g>
<!-- 6 -->
<g id="node7" class="node">
<title>6</title>
<path fill="none" stroke="#d8ac56" stroke-width="2" d="M159.35,-252C159.35,-252 27.35,-252 27.35,-252 21.35,-252 15.35,-246 15.35,-240 15.35,-240 15.35,-228 15.35,-228 15.35,-222 21.35,-216 27.35,-216 27.35,-216 159.35,-216 159.35,-216 165.35,-216 171.35,-222 171.35,-228 171.35,-228 171.35,-240 171.35,-240 171.35,-246 165.35,-252 159.35,-252"/>
<text text-anchor="middle" x="93.35" y="-231.5" font-family="sans" font-size="10.00">calculate_gene_level_scores</text>
</g>
<!-- 2&#45;&gt;6 -->
<g id="edge43" class="edge">
<title>2&#45;&gt;6</title>
<path fill="none" stroke="grey" stroke-width="2" d="M109.91,-287.7C107.46,-279.9 104.51,-270.51 101.78,-261.83"/>
<polygon fill="grey" stroke="grey" stroke-width="2" points="105.07,-260.59 98.73,-252.1 98.39,-262.69 105.07,-260.59"/>
</g>
<!-- 43 -->
<g id="node44" class="node">
<title>43</title>
<path fill="none" stroke="#d87d56" stroke-width="2" d="M545.35,-252C545.35,-252 413.35,-252 413.35,-252 407.35,-252 401.35,-246 401.35,-240 401.35,-240 401.35,-228 401.35,-228 401.35,-222 407.35,-216 413.35,-216 413.35,-216 545.35,-216 545.35,-216 551.35,-216 557.35,-222 557.35,-228 557.35,-228 557.35,-240 557.35,-240 557.35,-246 551.35,-252 545.35,-252"/>
<text text-anchor="middle" x="479.35" y="-237" font-family="sans" font-size="10.00">calculate_differential_scores</text>
<text text-anchor="middle" x="479.35" y="-226" font-family="sans" font-size="10.00">rep: OI.R1</text>
</g>
<!-- 2&#45;&gt;43 -->
<g id="edge91" class="edge">
<title>2&#45;&gt;43</title>
<path fill="none" stroke="grey" stroke-width="2" d="M204.88,-287.96C256.59,-278.1 323.16,-265.37 391.07,-252.24"/>
<polygon fill="grey" stroke="grey" stroke-width="2" points="391.95,-255.64 401.1,-250.31 390.62,-248.77 391.95,-255.64"/>
</g>
<!-- 3 -->
<g id="node4" class="node">
<title>3</title>
<path fill="none" stroke="#d85656" stroke-width="2" d="M926.85,-396C926.85,-396 821.85,-396 821.85,-396 815.85,-396 809.85,-390 809.85,-384 809.85,-384 809.85,-372 809.85,-372 809.85,-366 815.85,-360 821.85,-360 821.85,-360 926.85,-360 926.85,-360 932.85,-360 938.85,-366 938.85,-372 938.85,-372 938.85,-384 938.85,-384 938.85,-390 932.85,-396 926.85,-396"/>
<text text-anchor="middle" x="874.35" y="-375.5" font-family="sans" font-size="10.00">apply_correlation_filter</text>
</g>
<!-- 3&#45;&gt;2 -->
<g id="edge39" class="edge">
<title>3&#45;&gt;2</title>
<path fill="none" stroke="grey" stroke-width="2" d="M809.64,-371.03C679.23,-359 383.67,-331.75 223.45,-316.97"/>
<polygon fill="grey" stroke="grey" stroke-width="2" points="223.38,-313.45 213.1,-316.01 222.74,-320.42 223.38,-313.45"/>
</g>
<!-- 8 -->
<g id="node9" class="node">
<title>8</title>
<path fill="none" stroke="#78d856" stroke-width="2" d="M499.85,-324C499.85,-324 328.85,-324 328.85,-324 322.85,-324 316.85,-318 316.85,-312 316.85,-312 316.85,-300 316.85,-300 316.85,-294 322.85,-288 328.85,-288 328.85,-288 499.85,-288 499.85,-288 505.85,-288 511.85,-294 511.85,-300 511.85,-300 511.85,-312 511.85,-312 511.85,-318 505.85,-324 499.85,-324"/>
<text text-anchor="middle" x="414.35" y="-309" font-family="sans" font-size="10.00">compute_genetic_interaction_scores</text>
<text text-anchor="middle" x="414.35" y="-298" font-family="sans" font-size="10.00">score: Gamma.OI.R2</text>
</g>
<!-- 3&#45;&gt;8 -->
<g id="edge46" class="edge">
<title>3&#45;&gt;8</title>
<path fill="none" stroke="grey" stroke-width="2" d="M809.42,-367.12C734.78,-355.76 611.12,-336.94 522.02,-323.38"/>
<polygon fill="grey" stroke="grey" stroke-width="2" points="522.29,-319.88 511.87,-321.84 521.23,-326.8 522.29,-319.88"/>
</g>
<!-- 11 -->
<g id="node12" class="node">
<title>11</title>
<path fill="none" stroke="#78d856" stroke-width="2" d="M1099.85,-324C1099.85,-324 928.85,-324 928.85,-324 922.85,-324 916.85,-318 916.85,-312 916.85,-312 916.85,-300 916.85,-300 916.85,-294 922.85,-288 928.85,-288 928.85,-288 1099.85,-288 1099.85,-288 1105.85,-288 1111.85,-294 1111.85,-300 1111.85,-300 1111.85,-312 1111.85,-312 1111.85,-318 1105.85,-324 1099.85,-324"/>
<text text-anchor="middle" x="1014.35" y="-309" font-family="sans" font-size="10.00">compute_genetic_interaction_scores</text>
<text text-anchor="middle" x="1014.35" y="-298" font-family="sans" font-size="10.00">score: Gamma.OI.Avg</text>
</g>
<!-- 3&#45;&gt;11 -->
<g id="edge50" class="edge">
<title>3&#45;&gt;11</title>
<path fill="none" stroke="grey" stroke-width="2" d="M908.6,-359.88C927.41,-350.47 950.94,-338.71 971.02,-328.67"/>
<polygon fill="grey" stroke="grey" stroke-width="2" points="972.59,-331.79 979.97,-324.19 969.46,-325.53 972.59,-331.79"/>
</g>
<!-- 14 -->
<g id="node15" class="node">
<title>14</title>
<path fill="none" stroke="#78d856" stroke-width="2" d="M755.85,-324C755.85,-324 584.85,-324 584.85,-324 578.85,-324 572.85,-318 572.85,-312 572.85,-312 572.85,-300 572.85,-300 572.85,-294 578.85,-288 584.85,-288 584.85,-288 755.85,-288 755.85,-288 761.85,-288 767.85,-294 767.85,-300 767.85,-300 767.85,-312 767.85,-312 767.85,-318 761.85,-324 755.85,-324"/>
<text text-anchor="middle" x="670.35" y="-309" font-family="sans" font-size="10.00">compute_genetic_interaction_scores</text>
<text text-anchor="middle" x="670.35" y="-298" font-family="sans" font-size="10.00">score: Tau.OI.R1</text>
</g>
<!-- 3&#45;&gt;14 -->
<g id="edge54" class="edge">
<title>3&#45;&gt;14</title>
<path fill="none" stroke="grey" stroke-width="2" d="M824.71,-359.97C796.08,-350.14 759.91,-337.73 729.77,-327.39"/>
<polygon fill="grey" stroke="grey" stroke-width="2" points="730.81,-324.05 720.22,-324.11 728.54,-330.67 730.81,-324.05"/>
</g>
<!-- 17 -->
<g id="node18" class="node">
<title>17</title>
<path fill="none" stroke="#78d856" stroke-width="2" d="M1334.85,-324C1334.85,-324 1163.85,-324 1163.85,-324 1157.85,-324 1151.85,-318 1151.85,-312 1151.85,-312 1151.85,-300 1151.85,-300 1151.85,-294 1157.85,-288 1163.85,-288 1163.85,-288 1334.85,-288 1334.85,-288 1340.85,-288 1346.85,-294 1346.85,-300 1346.85,-300 1346.85,-312 1346.85,-312 1346.85,-318 1340.85,-324 1334.85,-324"/>
<text text-anchor="middle" x="1249.35" y="-309" font-family="sans" font-size="10.00">compute_genetic_interaction_scores</text>
<text text-anchor="middle" x="1249.35" y="-298" font-family="sans" font-size="10.00">score: Tau.OI.R2</text>
</g>
<!-- 3&#45;&gt;17 -->
<g id="edge58" class="edge">
<title>3&#45;&gt;17</title>
<path fill="none" stroke="grey" stroke-width="2" d="M939.24,-364.89C996.77,-354.15 1081.71,-338.29 1148.16,-325.89"/>
<polygon fill="grey" stroke="grey" stroke-width="2" points="1149.05,-329.28 1158.24,-324.01 1147.77,-322.4 1149.05,-329.28"/>
</g>
<!-- 20 -->
<g id="node21" class="node">
<title>20</title>
<path fill="none" stroke="#78d856" stroke-width="2" d="M1633.85,-324C1633.85,-324 1462.85,-324 1462.85,-324 1456.85,-324 1450.85,-318 1450.85,-312 1450.85,-312 1450.85,-300 1450.85,-300 1450.85,-294 1456.85,-288 1462.85,-288 1462.85,-288 1633.85,-288 1633.85,-288 1639.85,-288 1645.85,-294 1645.85,-300 1645.85,-300 1645.85,-312 1645.85,-312 1645.85,-318 1639.85,-324 1633.85,-324"/>
<text text-anchor="middle" x="1548.35" y="-309" font-family="sans" font-size="10.00">compute_genetic_interaction_scores</text>
<text text-anchor="middle" x="1548.35" y="-298" font-family="sans" font-size="10.00">score: Tau.OI.Avg</text>
</g>
<!-- 3&#45;&gt;20 -->
<g id="edge62" class="edge">
<title>3&#45;&gt;20</title>
<path fill="none" stroke="grey" stroke-width="2" d="M938.98,-370.29C1054.89,-358.25 1299.22,-332.87 1440.76,-318.17"/>
<polygon fill="grey" stroke="grey" stroke-width="2" points="1441.19,-321.65 1450.77,-317.13 1440.47,-314.69 1441.19,-321.65"/>
</g>
<!-- 4 -->
<g id="node5" class="node">
<title>4</title>
<path fill="none" stroke="#d8bc56" stroke-width="2" d="M878.85,-468C878.85,-468 779.85,-468 779.85,-468 773.85,-468 767.85,-462 767.85,-456 767.85,-456 767.85,-444 767.85,-444 767.85,-438 773.85,-432 779.85,-432 779.85,-432 878.85,-432 878.85,-432 884.85,-432 890.85,-438 890.85,-444 890.85,-444 890.85,-456 890.85,-456 890.85,-462 884.85,-468 878.85,-468"/>
<text text-anchor="middle" x="829.35" y="-447.5" font-family="sans" font-size="10.00">calculate_phenotypes</text>
</g>
<!-- 4&#45;&gt;3 -->
<g id="edge40" class="edge">
<title>4&#45;&gt;3</title>
<path fill="none" stroke="grey" stroke-width="2" d="M840.48,-431.7C845.71,-423.56 852.05,-413.69 857.83,-404.7"/>
<polygon fill="grey" stroke="grey" stroke-width="2" points="860.89,-406.41 863.36,-396.1 855.01,-402.62 860.89,-406.41"/>
</g>
<!-- 5 -->
<g id="node6" class="node">
<title>5</title>
<path fill="none" stroke="#d86e56" stroke-width="2" d="M917.85,-540C917.85,-540 830.85,-540 830.85,-540 824.85,-540 818.85,-534 818.85,-528 818.85,-528 818.85,-516 818.85,-516 818.85,-510 824.85,-504 830.85,-504 830.85,-504 917.85,-504 917.85,-504 923.85,-504 929.85,-510 929.85,-516 929.85,-516 929.85,-528 929.85,-528 929.85,-534 923.85,-540 917.85,-540"/>
<text text-anchor="middle" x="874.35" y="-525" font-family="sans" font-size="10.00">apply_count_filters</text>
<text text-anchor="middle" x="874.35" y="-514" font-family="sans" font-size="10.00">screen: screen2022</text>
</g>
<!-- 5&#45;&gt;3 -->
<g id="edge41" class="edge">
<title>5&#45;&gt;3</title>
<path fill="none" stroke="grey" stroke-width="2" d="M884.98,-503.56C890.45,-493.54 896.55,-480.51 899.35,-468 902.85,-452.39 902.85,-447.61 899.35,-432 897.34,-423.01 893.62,-413.75 889.66,-405.53"/>
<polygon fill="grey" stroke="grey" stroke-width="2" points="892.67,-403.73 884.98,-396.44 886.44,-406.94 892.67,-403.73"/>
</g>
<!-- 5&#45;&gt;4 -->
<g id="edge42" class="edge">
<title>5&#45;&gt;4</title>
<path fill="none" stroke="grey" stroke-width="2" d="M863.23,-503.7C858,-495.56 851.65,-485.69 845.87,-476.7"/>
<polygon fill="grey" stroke="grey" stroke-width="2" points="848.7,-474.62 840.35,-468.1 842.81,-478.41 848.7,-474.62"/>
</g>
<!-- 6&#45;&gt;1 -->
<g id="edge38" class="edge">
<title>6&#45;&gt;1</title>
<path fill="none" stroke="grey" stroke-width="2" d="M98.3,-215.7C100.52,-207.9 103.21,-198.51 105.69,-189.83"/>
<polygon fill="grey" stroke="grey" stroke-width="2" points="109.08,-190.68 108.47,-180.1 102.35,-188.76 109.08,-190.68"/>
</g>
<!-- 7 -->
<g id="node8" class="node">
<title>7</title>
<path fill="none" stroke="#d89556" stroke-width="2" d="M380.35,-180C380.35,-180 240.35,-180 240.35,-180 234.35,-180 228.35,-174 228.35,-168 228.35,-168 228.35,-156 228.35,-156 228.35,-150 234.35,-144 240.35,-144 240.35,-144 380.35,-144 380.35,-144 386.35,-144 392.35,-150 392.35,-156 392.35,-156 392.35,-168 392.35,-168 392.35,-174 386.35,-180 380.35,-180"/>
<text text-anchor="middle" x="310.35" y="-159.5" font-family="sans" font-size="10.00">calculate_discriminant_scores</text>
</g>
<!-- 7&#45;&gt;0 -->
<g id="edge2" class="edge">
<title>7&#45;&gt;0</title>
<path fill="none" stroke="grey" stroke-width="2" d="M311.86,-143.86C314.71,-122.99 322.89,-88.48 346.35,-72 398.77,-35.17 1327.08,-22.88 1629.77,-19.84"/>
<polygon fill="grey" stroke="grey" stroke-width="2" points="1629.88,-23.34 1639.84,-19.74 1629.81,-16.34 1629.88,-23.34"/>
</g>
<!-- 50 -->
<g id="node51" class="node">
<title>50</title>
<path fill="none" stroke="#d8d356" stroke-width="2" d="M400.85,-108C400.85,-108 367.85,-108 367.85,-108 361.85,-108 355.85,-102 355.85,-96 355.85,-96 355.85,-84 355.85,-84 355.85,-78 361.85,-72 367.85,-72 367.85,-72 400.85,-72 400.85,-72 406.85,-72 412.85,-78 412.85,-84 412.85,-84 412.85,-96 412.85,-96 412.85,-102 406.85,-108 400.85,-108"/>
<text text-anchor="middle" x="384.35" y="-87.5" font-family="sans" font-size="10.00">call_hits</text>
</g>
<!-- 7&#45;&gt;50 -->
<g id="edge104" class="edge">
<title>7&#45;&gt;50</title>
<path fill="none" stroke="grey" stroke-width="2" d="M328.64,-143.7C337.79,-135.05 348.99,-124.45 358.95,-115.03"/>
<polygon fill="grey" stroke="grey" stroke-width="2" points="361.41,-117.52 366.27,-108.1 356.6,-112.43 361.41,-117.52"/>
</g>
<!-- 8&#45;&gt;7 -->
<g id="edge44" class="edge">
<title>8&#45;&gt;7</title>
<path fill="none" stroke="grey" stroke-width="2" d="M316.72,-289.96C274.17,-281.22 231.07,-268.62 218.35,-252 208.63,-239.3 210.35,-229.85 218.35,-216 225.92,-202.9 238.09,-192.76 251.14,-185.02"/>
<polygon fill="grey" stroke="grey" stroke-width="2" points="253.16,-187.9 260.26,-180.03 249.81,-181.75 253.16,-187.9"/>
</g>
<!-- 9 -->
<g id="node10" class="node">
<title>9</title>
<path fill="none" stroke="#d8ac56" stroke-width="2" d="M371.35,-252C371.35,-252 239.35,-252 239.35,-252 233.35,-252 227.35,-246 227.35,-240 227.35,-240 227.35,-228 227.35,-228 227.35,-222 233.35,-216 239.35,-216 239.35,-216 371.35,-216 371.35,-216 377.35,-216 383.35,-222 383.35,-228 383.35,-228 383.35,-240 383.35,-240 383.35,-246 377.35,-252 371.35,-252"/>
<text text-anchor="middle" x="305.35" y="-231.5" font-family="sans" font-size="10.00">calculate_gene_level_scores</text>
</g>
<!-- 8&#45;&gt;9 -->
<g id="edge47" class="edge">
<title>8&#45;&gt;9</title>
<path fill="none" stroke="grey" stroke-width="2" d="M387.69,-287.88C373.57,-278.81 356.04,-267.55 340.79,-257.76"/>
<polygon fill="grey" stroke="grey" stroke-width="2" points="342.43,-254.65 332.12,-252.19 338.64,-260.54 342.43,-254.65"/>
</g>
<!-- 44 -->
<g id="node45" class="node">
<title>44</title>
<path fill="none" stroke="#d87d56" stroke-width="2" d="M931.35,-252C931.35,-252 799.35,-252 799.35,-252 793.35,-252 787.35,-246 787.35,-240 787.35,-240 787.35,-228 787.35,-228 787.35,-222 793.35,-216 799.35,-216 799.35,-216 931.35,-216 931.35,-216 937.35,-216 943.35,-222 943.35,-228 943.35,-228 943.35,-240 943.35,-240 943.35,-246 937.35,-252 931.35,-252"/>
<text text-anchor="middle" x="865.35" y="-237" font-family="sans" font-size="10.00">calculate_differential_scores</text>
<text text-anchor="middle" x="865.35" y="-226" font-family="sans" font-size="10.00">rep: OI.R2</text>
</g>
<!-- 8&#45;&gt;44 -->
<g id="edge93" class="edge">
<title>8&#45;&gt;44</title>
<path fill="none" stroke="grey" stroke-width="2" d="M511.89,-292.1C582.79,-282.42 681.32,-268.34 776.99,-252.19"/>
<polygon fill="grey" stroke="grey" stroke-width="2" points="777.86,-255.59 787.13,-250.47 776.69,-248.69 777.86,-255.59"/>
</g>
<!-- 9&#45;&gt;7 -->
<g id="edge45" class="edge">
<title>9&#45;&gt;7</title>
<path fill="none" stroke="grey" stroke-width="2" d="M306.59,-215.7C307.14,-207.98 307.8,-198.71 308.42,-190.11"/>
<polygon fill="grey" stroke="grey" stroke-width="2" points="311.91,-190.33 309.13,-180.1 304.93,-189.83 311.91,-190.33"/>
</g>
<!-- 10 -->
<g id="node11" class="node">
<title>10</title>
<path fill="none" stroke="#d89556" stroke-width="2" d="M1150.35,-180C1150.35,-180 1010.35,-180 1010.35,-180 1004.35,-180 998.35,-174 998.35,-168 998.35,-168 998.35,-156 998.35,-156 998.35,-150 1004.35,-144 1010.35,-144 1010.35,-144 1150.35,-144 1150.35,-144 1156.35,-144 1162.35,-150 1162.35,-156 1162.35,-156 1162.35,-168 1162.35,-168 1162.35,-174 1156.35,-180 1150.35,-180"/>
<text text-anchor="middle" x="1080.35" y="-159.5" font-family="sans" font-size="10.00">calculate_discriminant_scores</text>
</g>
<!-- 10&#45;&gt;0 -->
<g id="edge3" class="edge">
<title>10&#45;&gt;0</title>
<path fill="none" stroke="grey" stroke-width="2" d="M1080.83,-143.78C1082.41,-123.15 1088.43,-89.22 1110.35,-72 1150.18,-40.71 1466.97,-26.71 1629.25,-21.54"/>
<polygon fill="grey" stroke="grey" stroke-width="2" points="1629.82,-25.03 1639.71,-21.22 1629.6,-18.03 1629.82,-25.03"/>
</g>
<!-- 51 -->
<g id="node52" class="node">
<title>51</title>
<path fill="none" stroke="#d8d356" stroke-width="2" d="M1164.85,-108C1164.85,-108 1131.85,-108 1131.85,-108 1125.85,-108 1119.85,-102 1119.85,-96 1119.85,-96 1119.85,-84 1119.85,-84 1119.85,-78 1125.85,-72 1131.85,-72 1131.85,-72 1164.85,-72 1164.85,-72 1170.85,-72 1176.85,-78 1176.85,-84 1176.85,-84 1176.85,-96 1176.85,-96 1176.85,-102 1170.85,-108 1164.85,-108"/>
<text text-anchor="middle" x="1148.35" y="-87.5" font-family="sans" font-size="10.00">call_hits</text>
</g>
<!-- 10&#45;&gt;51 -->
<g id="edge105" class="edge">
<title>10&#45;&gt;51</title>
<path fill="none" stroke="grey" stroke-width="2" d="M1097.16,-143.7C1105.48,-135.14 1115.66,-124.66 1124.74,-115.3"/>
<polygon fill="grey" stroke="grey" stroke-width="2" points="1127.28,-117.72 1131.74,-108.1 1122.26,-112.84 1127.28,-117.72"/>
</g>
<!-- 11&#45;&gt;10 -->
<g id="edge48" class="edge">
<title>11&#45;&gt;10</title>
<path fill="none" stroke="grey" stroke-width="2" d="M1002.44,-287.95C991.01,-269.27 977.25,-238.92 990.35,-216 997.81,-202.95 1009.87,-192.8 1022.77,-185.03"/>
<polygon fill="grey" stroke="grey" stroke-width="2" points="1024.75,-187.94 1031.8,-180.03 1021.35,-181.82 1024.75,-187.94"/>
</g>
<!-- 12 -->
<g id="node13" class="node">
<title>12</title>
<path fill="none" stroke="#d8ac56" stroke-width="2" d="M1143.35,-252C1143.35,-252 1011.35,-252 1011.35,-252 1005.35,-252 999.35,-246 999.35,-240 999.35,-240 999.35,-228 999.35,-228 999.35,-222 1005.35,-216 1011.35,-216 1011.35,-216 1143.35,-216 1143.35,-216 1149.35,-216 1155.35,-222 1155.35,-228 1155.35,-228 1155.35,-240 1155.35,-240 1155.35,-246 1149.35,-252 1143.35,-252"/>
<text text-anchor="middle" x="1077.35" y="-231.5" font-family="sans" font-size="10.00">calculate_gene_level_scores</text>
</g>
<!-- 11&#45;&gt;12 -->
<g id="edge51" class="edge">
<title>11&#45;&gt;12</title>
<path fill="none" stroke="grey" stroke-width="2" d="M1029.93,-287.7C1037.55,-279.22 1046.88,-268.86 1055.23,-259.58"/>
<polygon fill="grey" stroke="grey" stroke-width="2" points="1057.87,-261.88 1061.96,-252.1 1052.67,-257.2 1057.87,-261.88"/>
</g>
<!-- 45 -->
<g id="node46" class="node">
<title>45</title>
<path fill="none" stroke="#d87d56" stroke-width="2" d="M1317.35,-252C1317.35,-252 1185.35,-252 1185.35,-252 1179.35,-252 1173.35,-246 1173.35,-240 1173.35,-240 1173.35,-228 1173.35,-228 1173.35,-222 1179.35,-216 1185.35,-216 1185.35,-216 1317.35,-216 1317.35,-216 1323.35,-216 1329.35,-222 1329.35,-228 1329.35,-228 1329.35,-240 1329.35,-240 1329.35,-246 1323.35,-252 1317.35,-252"/>
<text text-anchor="middle" x="1251.35" y="-237" font-family="sans" font-size="10.00">calculate_differential_scores</text>
<text text-anchor="middle" x="1251.35" y="-226" font-family="sans" font-size="10.00">rep: OI.Avg</text>
</g>
<!-- 11&#45;&gt;45 -->
<g id="edge95" class="edge">
<title>11&#45;&gt;45</title>
<path fill="none" stroke="grey" stroke-width="2" d="M1072.03,-287.97C1105.72,-278.01 1148.41,-265.41 1183.68,-254.99"/>
<polygon fill="grey" stroke="grey" stroke-width="2" points="1184.82,-258.3 1193.42,-252.11 1182.84,-251.59 1184.82,-258.3"/>
</g>
<!-- 12&#45;&gt;10 -->
<g id="edge49" class="edge">
<title>12&#45;&gt;10</title>
<path fill="none" stroke="grey" stroke-width="2" d="M1078.09,-215.7C1078.42,-207.98 1078.82,-198.71 1079.19,-190.11"/>
<polygon fill="grey" stroke="grey" stroke-width="2" points="1082.69,-190.25 1079.62,-180.1 1075.69,-189.95 1082.69,-190.25"/>
</g>
<!-- 13 -->
<g id="node14" class="node">
<title>13</title>
<path fill="none" stroke="#d89556" stroke-width="2" d="M764.35,-180C764.35,-180 624.35,-180 624.35,-180 618.35,-180 612.35,-174 612.35,-168 612.35,-168 612.35,-156 612.35,-156 612.35,-150 618.35,-144 624.35,-144 624.35,-144 764.35,-144 764.35,-144 770.35,-144 776.35,-150 776.35,-156 776.35,-156 776.35,-168 776.35,-168 776.35,-174 770.35,-180 764.35,-180"/>
<text text-anchor="middle" x="694.35" y="-159.5" font-family="sans" font-size="10.00">calculate_discriminant_scores</text>
</g>
<!-- 13&#45;&gt;0 -->
<g id="edge4" class="edge">
<title>13&#45;&gt;0</title>
<path fill="none" stroke="grey" stroke-width="2" d="M696.29,-143.89C699.66,-123.04 708.67,-88.56 732.35,-72 804.68,-21.41 1395.64,-17.84 1629.55,-18.44"/>
<polygon fill="grey" stroke="grey" stroke-width="2" points="1629.73,-21.94 1639.74,-18.47 1629.75,-14.94 1629.73,-21.94"/>
</g>
<!-- 52 -->
<g id="node53" class="node">
<title>52</title>
<path fill="none" stroke="#d8d356" stroke-width="2" d="M786.85,-108C786.85,-108 753.85,-108 753.85,-108 747.85,-108 741.85,-102 741.85,-96 741.85,-96 741.85,-84 741.85,-84 741.85,-78 747.85,-72 753.85,-72 753.85,-72 786.85,-72 786.85,-72 792.85,-72 798.85,-78 798.85,-84 798.85,-84 798.85,-96 798.85,-96 798.85,-102 792.85,-108 786.85,-108"/>
<text text-anchor="middle" x="770.35" y="-87.5" font-family="sans" font-size="10.00">call_hits</text>
</g>
<!-- 13&#45;&gt;52 -->
<g id="edge106" class="edge">
<title>13&#45;&gt;52</title>
<path fill="none" stroke="grey" stroke-width="2" d="M713.14,-143.7C722.53,-135.05 734.04,-124.45 744.27,-115.03"/>
<polygon fill="grey" stroke="grey" stroke-width="2" points="746.8,-117.45 751.78,-108.1 742.06,-112.3 746.8,-117.45"/>
</g>
<!-- 14&#45;&gt;13 -->
<g id="edge52" class="edge">
<title>14&#45;&gt;13</title>
<path fill="none" stroke="grey" stroke-width="2" d="M638.3,-287.88C625.23,-279.05 611.53,-266.97 604.35,-252 597.44,-237.57 596.41,-229.89 604.35,-216 611.81,-202.95 623.87,-192.8 636.77,-185.03"/>
<polygon fill="grey" stroke="grey" stroke-width="2" points="638.75,-187.94 645.8,-180.03 635.35,-181.82 638.75,-187.94"/>
</g>
<!-- 15 -->
<g id="node16" class="node">
<title>15</title>
<path fill="none" stroke="#d8ac56" stroke-width="2" d="M757.35,-252C757.35,-252 625.35,-252 625.35,-252 619.35,-252 613.35,-246 613.35,-240 613.35,-240 613.35,-228 613.35,-228 613.35,-222 619.35,-216 625.35,-216 625.35,-216 757.35,-216 757.35,-216 763.35,-216 769.35,-222 769.35,-228 769.35,-228 769.35,-240 769.35,-240 769.35,-246 763.35,-252 757.35,-252"/>
<text text-anchor="middle" x="691.35" y="-231.5" font-family="sans" font-size="10.00">calculate_gene_level_scores</text>
</g>
<!-- 14&#45;&gt;15 -->
<g id="edge55" class="edge">
<title>14&#45;&gt;15</title>
<path fill="none" stroke="grey" stroke-width="2" d="M675.54,-287.7C677.88,-279.9 680.7,-270.51 683.3,-261.83"/>
<polygon fill="grey" stroke="grey" stroke-width="2" points="686.7,-262.69 686.22,-252.1 680,-260.68 686.7,-262.69"/>
</g>
<!-- 14&#45;&gt;43 -->
<g id="edge92" class="edge">
<title>14&#45;&gt;43</title>
<path fill="none" stroke="grey" stroke-width="2" d="M623.63,-287.88C597.05,-278.14 563.59,-265.87 535.58,-255.61"/>
<polygon fill="grey" stroke="grey" stroke-width="2" points="536.52,-252.22 525.92,-252.07 534.11,-258.8 536.52,-252.22"/>
</g>
<!-- 15&#45;&gt;13 -->
<g id="edge53" class="edge">
<title>15&#45;&gt;13</title>
<path fill="none" stroke="grey" stroke-width="2" d="M692.09,-215.7C692.42,-207.98 692.82,-198.71 693.19,-190.11"/>
<polygon fill="grey" stroke="grey" stroke-width="2" points="696.69,-190.25 693.62,-180.1 689.69,-189.95 696.69,-190.25"/>
</g>
<!-- 16 -->
<g id="node17" class="node">
<title>16</title>
<path fill="none" stroke="#d89556" stroke-width="2" d="M1520.35,-180C1520.35,-180 1380.35,-180 1380.35,-180 1374.35,-180 1368.35,-174 1368.35,-168 1368.35,-168 1368.35,-156 1368.35,-156 1368.35,-150 1374.35,-144 1380.35,-144 1380.35,-144 1520.35,-144 1520.35,-144 1526.35,-144 1532.35,-150 1532.35,-156 1532.35,-156 1532.35,-168 1532.35,-168 1532.35,-174 1526.35,-180 1520.35,-180"/>
<text text-anchor="middle" x="1450.35" y="-159.5" font-family="sans" font-size="10.00">calculate_discriminant_scores</text>
</g>
<!-- 16&#45;&gt;0 -->
<g id="edge5" class="edge">
<title>16&#45;&gt;0</title>
<path fill="none" stroke="grey" stroke-width="2" d="M1459.47,-143.82C1471.11,-123.55 1493.18,-90.31 1521.35,-72 1553.52,-51.09 1593.59,-38.41 1629.61,-30.73"/>
<polygon fill="grey" stroke="grey" stroke-width="2" points="1630.55,-34.12 1639.66,-28.7 1629.16,-27.25 1630.55,-34.12"/>
</g>
<!-- 53 -->
<g id="node54" class="node">
<title>53</title>
<path fill="none" stroke="#d8d356" stroke-width="2" d="M1575.85,-108C1575.85,-108 1542.85,-108 1542.85,-108 1536.85,-108 1530.85,-102 1530.85,-96 1530.85,-96 1530.85,-84 1530.85,-84 1530.85,-78 1536.85,-72 1542.85,-72 1542.85,-72 1575.85,-72 1575.85,-72 1581.85,-72 1587.85,-78 1587.85,-84 1587.85,-84 1587.85,-96 1587.85,-96 1587.85,-102 1581.85,-108 1575.85,-108"/>
<text text-anchor="middle" x="1559.35" y="-87.5" font-family="sans" font-size="10.00">call_hits</text>
</g>
<!-- 16&#45;&gt;53 -->
<g id="edge107" class="edge">
<title>16&#45;&gt;53</title>
<path fill="none" stroke="grey" stroke-width="2" d="M1477.02,-143.88C1491.14,-134.81 1508.66,-123.55 1523.91,-113.76"/>
<polygon fill="grey" stroke="grey" stroke-width="2" points="1526.06,-116.54 1532.59,-108.19 1522.28,-110.65 1526.06,-116.54"/>
</g>
<!-- 17&#45;&gt;16 -->
<g id="edge56" class="edge">
<title>17&#45;&gt;16</title>
<path fill="none" stroke="grey" stroke-width="2" d="M1281.75,-287.99C1299.13,-278.31 1320.57,-265.46 1338.35,-252 1356.9,-237.96 1358.41,-230.81 1376.35,-216 1388.93,-205.62 1403.39,-195 1416.17,-186.01"/>
<polygon fill="grey" stroke="grey" stroke-width="2" points="1418.5,-188.66 1424.71,-180.08 1414.5,-182.91 1418.5,-188.66"/>
</g>
<!-- 18 -->
<g id="node19" class="node">
<title>18</title>
<path fill="none" stroke="#d8ac56" stroke-width="2" d="M1529.35,-252C1529.35,-252 1397.35,-252 1397.35,-252 1391.35,-252 1385.35,-246 1385.35,-240 1385.35,-240 1385.35,-228 1385.35,-228 1385.35,-222 1391.35,-216 1397.35,-216 1397.35,-216 1529.35,-216 1529.35,-216 1535.35,-216 1541.35,-222 1541.35,-228 1541.35,-228 1541.35,-240 1541.35,-240 1541.35,-246 1535.35,-252 1529.35,-252"/>
<text text-anchor="middle" x="1463.35" y="-231.5" font-family="sans" font-size="10.00">calculate_gene_level_scores</text>
</g>
<!-- 17&#45;&gt;18 -->
<g id="edge59" class="edge">
<title>17&#45;&gt;18</title>
<path fill="none" stroke="grey" stroke-width="2" d="M1301.43,-287.97C1331.59,-278.1 1369.74,-265.62 1401.43,-255.25"/>
<polygon fill="grey" stroke="grey" stroke-width="2" points="1402.63,-258.55 1411.04,-252.11 1400.45,-251.89 1402.63,-258.55"/>
</g>
<!-- 17&#45;&gt;44 -->
<g id="edge94" class="edge">
<title>17&#45;&gt;44</title>
<path fill="none" stroke="grey" stroke-width="2" d="M1155.91,-287.97C1094.29,-276.73 1014.1,-262.11 953.57,-251.08"/>
<polygon fill="grey" stroke="grey" stroke-width="2" points="954.12,-247.62 943.65,-249.27 952.86,-254.51 954.12,-247.62"/>
</g>
<!-- 18&#45;&gt;16 -->
<g id="edge57" class="edge">
<title>18&#45;&gt;16</title>
<path fill="none" stroke="grey" stroke-width="2" d="M1460.14,-215.7C1458.71,-207.98 1456.99,-198.71 1455.39,-190.11"/>
<polygon fill="grey" stroke="grey" stroke-width="2" points="1458.8,-189.3 1453.53,-180.1 1451.91,-190.58 1458.8,-189.3"/>
</g>
<!-- 19 -->
<g id="node20" class="node">
<title>19</title>
<path fill="none" stroke="#d89556" stroke-width="2" d="M1702.35,-180C1702.35,-180 1562.35,-180 1562.35,-180 1556.35,-180 1550.35,-174 1550.35,-168 1550.35,-168 1550.35,-156 1550.35,-156 1550.35,-150 1556.35,-144 1562.35,-144 1562.35,-144 1702.35,-144 1702.35,-144 1708.35,-144 1714.35,-150 1714.35,-156 1714.35,-156 1714.35,-168 1714.35,-168 1714.35,-174 1708.35,-180 1702.35,-180"/>
<text text-anchor="middle" x="1632.35" y="-159.5" font-family="sans" font-size="10.00">calculate_discriminant_scores</text>
</g>
<!-- 19&#45;&gt;0 -->
<g id="edge6" class="edge">
<title>19&#45;&gt;0</title>
<path fill="none" stroke="grey" stroke-width="2" d="M1633.97,-143.96C1636.45,-125.01 1642.58,-94.17 1657.35,-72 1665.02,-60.49 1675.99,-50.34 1686.84,-42.07"/>
<polygon fill="grey" stroke="grey" stroke-width="2" points="1689,-44.83 1695.05,-36.14 1684.9,-39.16 1689,-44.83"/>
</g>
<!-- 54 -->
<g id="node55" class="node">
<title>54</title>
<path fill="none" stroke="#d8d356" stroke-width="2" d="M1711.85,-108C1711.85,-108 1678.85,-108 1678.85,-108 1672.85,-108 1666.85,-102 1666.85,-96 1666.85,-96 1666.85,-84 1666.85,-84 1666.85,-78 1672.85,-72 1678.85,-72 1678.85,-72 1711.85,-72 1711.85,-72 1717.85,-72 1723.85,-78 1723.85,-84 1723.85,-84 1723.85,-96 1723.85,-96 1723.85,-102 1717.85,-108 1711.85,-108"/>
<text text-anchor="middle" x="1695.35" y="-87.5" font-family="sans" font-size="10.00">call_hits</text>
</g>
<!-- 19&#45;&gt;54 -->
<g id="edge108" class="edge">
<title>19&#45;&gt;54</title>
<path fill="none" stroke="grey" stroke-width="2" d="M1647.93,-143.7C1655.55,-135.22 1664.88,-124.86 1673.23,-115.58"/>
<polygon fill="grey" stroke="grey" stroke-width="2" points="1675.87,-117.88 1679.96,-108.1 1670.67,-113.2 1675.87,-117.88"/>
</g>
<!-- 20&#45;&gt;19 -->
<g id="edge60" class="edge">
<title>20&#45;&gt;19</title>
<path fill="none" stroke="grey" stroke-width="2" d="M1554.44,-287.91C1561.37,-269.47 1573.65,-239.57 1588.35,-216 1594.4,-206.31 1602.05,-196.48 1609.28,-187.95"/>
<polygon fill="grey" stroke="grey" stroke-width="2" points="1612.08,-190.07 1616.01,-180.23 1606.8,-185.47 1612.08,-190.07"/>
</g>
<!-- 21 -->
<g id="node22" class="node">
<title>21</title>
<path fill="none" stroke="#d8ac56" stroke-width="2" d="M1741.35,-252C1741.35,-252 1609.35,-252 1609.35,-252 1603.35,-252 1597.35,-246 1597.35,-240 1597.35,-240 1597.35,-228 1597.35,-228 1597.35,-222 1603.35,-216 1609.35,-216 1609.35,-216 1741.35,-216 1741.35,-216 1747.35,-216 1753.35,-222 1753.35,-228 1753.35,-228 1753.35,-240 1753.35,-240 1753.35,-246 1747.35,-252 1741.35,-252"/>
<text text-anchor="middle" x="1675.35" y="-231.5" font-family="sans" font-size="10.00">calculate_gene_level_scores</text>
</g>
<!-- 20&#45;&gt;21 -->
<g id="edge63" class="edge">
<title>20&#45;&gt;21</title>
<path fill="none" stroke="grey" stroke-width="2" d="M1579.42,-287.88C1596.18,-278.64 1617.06,-267.13 1635.05,-257.21"/>
<polygon fill="grey" stroke="grey" stroke-width="2" points="1637.1,-260.08 1644.17,-252.19 1633.72,-253.95 1637.1,-260.08"/>
</g>
<!-- 20&#45;&gt;45 -->
<g id="edge96" class="edge">
<title>20&#45;&gt;45</title>
<path fill="none" stroke="grey" stroke-width="2" d="M1476.08,-287.97C1433.06,-277.83 1378.33,-264.93 1333.65,-254.4"/>
<polygon fill="grey" stroke="grey" stroke-width="2" points="1334.23,-250.94 1323.69,-252.05 1332.62,-257.75 1334.23,-250.94"/>
</g>
<!-- 21&#45;&gt;19 -->
<g id="edge61" class="edge">
<title>21&#45;&gt;19</title>
<path fill="none" stroke="grey" stroke-width="2" d="M1664.72,-215.7C1659.72,-207.56 1653.66,-197.69 1648.14,-188.7"/>
<polygon fill="grey" stroke="grey" stroke-width="2" points="1651.08,-186.79 1642.86,-180.1 1645.11,-190.46 1651.08,-186.79"/>
</g>
<!-- 22 -->
<g id="node23" class="node">
<title>22</title>
<path fill="none" stroke="#d89556" stroke-width="2" d="M1884.35,-180C1884.35,-180 1744.35,-180 1744.35,-180 1738.35,-180 1732.35,-174 1732.35,-168 1732.35,-168 1732.35,-156 1732.35,-156 1732.35,-150 1738.35,-144 1744.35,-144 1744.35,-144 1884.35,-144 1884.35,-144 1890.35,-144 1896.35,-150 1896.35,-156 1896.35,-156 1896.35,-168 1896.35,-168 1896.35,-174 1890.35,-180 1884.35,-180"/>
<text text-anchor="middle" x="1814.35" y="-159.5" font-family="sans" font-size="10.00">calculate_discriminant_scores</text>
</g>
<!-- 22&#45;&gt;0 -->
<g id="edge7" class="edge">
<title>22&#45;&gt;0</title>
<path fill="none" stroke="grey" stroke-width="2" d="M1799.98,-143.84C1791.77,-133.7 1781.52,-120.45 1773.35,-108 1760.04,-87.72 1746.89,-63.54 1737.57,-45.51"/>
<polygon fill="grey" stroke="grey" stroke-width="2" points="1740.47,-43.5 1732.81,-36.19 1734.24,-46.68 1740.47,-43.5"/>
</g>
<!-- 58 -->
<g id="node59" class="node">
<title>58</title>
<path fill="none" stroke="#d8d356" stroke-width="2" d="M1827.85,-108C1827.85,-108 1794.85,-108 1794.85,-108 1788.85,-108 1782.85,-102 1782.85,-96 1782.85,-96 1782.85,-84 1782.85,-84 1782.85,-78 1788.85,-72 1794.85,-72 1794.85,-72 1827.85,-72 1827.85,-72 1833.85,-72 1839.85,-78 1839.85,-84 1839.85,-84 1839.85,-96 1839.85,-96 1839.85,-102 1833.85,-108 1827.85,-108"/>
<text text-anchor="middle" x="1811.35" y="-87.5" font-family="sans" font-size="10.00">call_hits</text>
</g>
<!-- 22&#45;&gt;58 -->
<g id="edge112" class="edge">
<title>22&#45;&gt;58</title>
<path fill="none" stroke="grey" stroke-width="2" d="M1813.61,-143.7C1813.28,-135.98 1812.88,-126.71 1812.51,-118.11"/>
<polygon fill="grey" stroke="grey" stroke-width="2" points="1816.01,-117.95 1812.09,-108.1 1809.02,-118.25 1816.01,-117.95"/>
</g>
<!-- 23 -->
<g id="node24" class="node">
<title>23</title>
<path fill="none" stroke="#78d856" stroke-width="2" d="M2042.85,-324C2042.85,-324 1871.85,-324 1871.85,-324 1865.85,-324 1859.85,-318 1859.85,-312 1859.85,-312 1859.85,-300 1859.85,-300 1859.85,-294 1865.85,-288 1871.85,-288 1871.85,-288 2042.85,-288 2042.85,-288 2048.85,-288 2054.85,-294 2054.85,-300 2054.85,-300 2054.85,-312 2054.85,-312 2054.85,-318 2048.85,-324 2042.85,-324"/>
<text text-anchor="middle" x="1957.35" y="-309" font-family="sans" font-size="10.00">compute_genetic_interaction_scores</text>
<text text-anchor="middle" x="1957.35" y="-298" font-family="sans" font-size="10.00">score: Gamma.OI.R1</text>
</g>
<!-- 23&#45;&gt;22 -->
<g id="edge64" class="edge">
<title>23&#45;&gt;22</title>
<path fill="none" stroke="grey" stroke-width="2" d="M1859.46,-292.1C1836.45,-284.23 1814.53,-271.75 1800.35,-252 1787.38,-233.93 1793.14,-208.47 1800.83,-189.41"/>
<polygon fill="grey" stroke="grey" stroke-width="2" points="1804.1,-190.66 1804.93,-180.1 1797.69,-187.84 1804.1,-190.66"/>
</g>
<!-- 27 -->
<g id="node28" class="node">
<title>27</title>
<path fill="none" stroke="#d8ac56" stroke-width="2" d="M1953.35,-252C1953.35,-252 1821.35,-252 1821.35,-252 1815.35,-252 1809.35,-246 1809.35,-240 1809.35,-240 1809.35,-228 1809.35,-228 1809.35,-222 1815.35,-216 1821.35,-216 1821.35,-216 1953.35,-216 1953.35,-216 1959.35,-216 1965.35,-222 1965.35,-228 1965.35,-228 1965.35,-240 1965.35,-240 1965.35,-246 1959.35,-252 1953.35,-252"/>
<text text-anchor="middle" x="1887.35" y="-231.5" font-family="sans" font-size="10.00">calculate_gene_level_scores</text>
</g>
<!-- 23&#45;&gt;27 -->
<g id="edge70" class="edge">
<title>23&#45;&gt;27</title>
<path fill="none" stroke="grey" stroke-width="2" d="M1940.05,-287.7C1931.49,-279.14 1921.01,-268.66 1911.66,-259.3"/>
<polygon fill="grey" stroke="grey" stroke-width="2" points="1914,-256.7 1904.46,-252.1 1909.05,-261.65 1914,-256.7"/>
</g>
<!-- 46 -->
<g id="node47" class="node">
<title>46</title>
<path fill="none" stroke="#d87d56" stroke-width="2" d="M2339.35,-252C2339.35,-252 2207.35,-252 2207.35,-252 2201.35,-252 2195.35,-246 2195.35,-240 2195.35,-240 2195.35,-228 2195.35,-228 2195.35,-222 2201.35,-216 2207.35,-216 2207.35,-216 2339.35,-216 2339.35,-216 2345.35,-216 2351.35,-222 2351.35,-228 2351.35,-228 2351.35,-240 2351.35,-240 2351.35,-246 2345.35,-252 2339.35,-252"/>
<text text-anchor="middle" x="2273.35" y="-237" font-family="sans" font-size="10.00">calculate_differential_scores</text>
<text text-anchor="middle" x="2273.35" y="-226" font-family="sans" font-size="10.00">rep: OI.R1</text>
</g>
<!-- 23&#45;&gt;46 -->
<g id="edge97" class="edge">
<title>23&#45;&gt;46</title>
<path fill="none" stroke="grey" stroke-width="2" d="M2034.25,-287.97C2080.22,-277.78 2138.75,-264.82 2186.39,-254.26"/>
<polygon fill="grey" stroke="grey" stroke-width="2" points="2187.38,-257.63 2196.38,-252.05 2185.86,-250.8 2187.38,-257.63"/>
</g>
<!-- 24 -->
<g id="node25" class="node">
<title>24</title>
<path fill="none" stroke="#d85656" stroke-width="2" d="M2650.85,-396C2650.85,-396 2545.85,-396 2545.85,-396 2539.85,-396 2533.85,-390 2533.85,-384 2533.85,-384 2533.85,-372 2533.85,-372 2533.85,-366 2539.85,-360 2545.85,-360 2545.85,-360 2650.85,-360 2650.85,-360 2656.85,-360 2662.85,-366 2662.85,-372 2662.85,-372 2662.85,-384 2662.85,-384 2662.85,-390 2656.85,-396 2650.85,-396"/>
<text text-anchor="middle" x="2598.35" y="-375.5" font-family="sans" font-size="10.00">apply_correlation_filter</text>
</g>
<!-- 24&#45;&gt;23 -->
<g id="edge66" class="edge">
<title>24&#45;&gt;23</title>
<path fill="none" stroke="grey" stroke-width="2" d="M2533.73,-370.52C2438.11,-360.86 2253.3,-341.88 2096.35,-324 2086.19,-322.84 2075.62,-321.61 2065.04,-320.35"/>
<polygon fill="grey" stroke="grey" stroke-width="2" points="2065.26,-316.85 2054.92,-319.14 2064.43,-323.8 2065.26,-316.85"/>
</g>
<!-- 29 -->
<g id="node30" class="node">
<title>29</title>
<path fill="none" stroke="#78d856" stroke-width="2" d="M2288.85,-324C2288.85,-324 2117.85,-324 2117.85,-324 2111.85,-324 2105.85,-318 2105.85,-312 2105.85,-312 2105.85,-300 2105.85,-300 2105.85,-294 2111.85,-288 2117.85,-288 2117.85,-288 2288.85,-288 2288.85,-288 2294.85,-288 2300.85,-294 2300.85,-300 2300.85,-300 2300.85,-312 2300.85,-312 2300.85,-318 2294.85,-324 2288.85,-324"/>
<text text-anchor="middle" x="2203.35" y="-309" font-family="sans" font-size="10.00">compute_genetic_interaction_scores</text>
<text text-anchor="middle" x="2203.35" y="-298" font-family="sans" font-size="10.00">score: Gamma.OI.R2</text>
</g>
<!-- 24&#45;&gt;29 -->
<g id="edge73" class="edge">
<title>24&#45;&gt;29</title>
<path fill="none" stroke="grey" stroke-width="2" d="M2533.57,-365.52C2472.84,-354.76 2380.96,-338.48 2309.53,-325.82"/>
<polygon fill="grey" stroke="grey" stroke-width="2" points="2310.04,-322.35 2299.59,-324.05 2308.82,-329.25 2310.04,-322.35"/>
</g>
<!-- 32 -->
<g id="node33" class="node">
<title>32</title>
<path fill="none" stroke="#78d856" stroke-width="2" d="M2871.85,-324C2871.85,-324 2700.85,-324 2700.85,-324 2694.85,-324 2688.85,-318 2688.85,-312 2688.85,-312 2688.85,-300 2688.85,-300 2688.85,-294 2694.85,-288 2700.85,-288 2700.85,-288 2871.85,-288 2871.85,-288 2877.85,-288 2883.85,-294 2883.85,-300 2883.85,-300 2883.85,-312 2883.85,-312 2883.85,-318 2877.85,-324 2871.85,-324"/>
<text text-anchor="middle" x="2786.35" y="-309" font-family="sans" font-size="10.00">compute_genetic_interaction_scores</text>
<text text-anchor="middle" x="2786.35" y="-298" font-family="sans" font-size="10.00">score: Gamma.OI.Avg</text>
</g>
<!-- 24&#45;&gt;32 -->
<g id="edge77" class="edge">
<title>24&#45;&gt;32</title>
<path fill="none" stroke="grey" stroke-width="2" d="M2644.34,-359.88C2670.5,-350.14 2703.44,-337.87 2731.01,-327.61"/>
<polygon fill="grey" stroke="grey" stroke-width="2" points="2732.36,-330.84 2740.51,-324.07 2729.92,-324.28 2732.36,-330.84"/>
</g>
<!-- 35 -->
<g id="node36" class="node">
<title>35</title>
<path fill="none" stroke="#78d856" stroke-width="2" d="M2517.85,-324C2517.85,-324 2346.85,-324 2346.85,-324 2340.85,-324 2334.85,-318 2334.85,-312 2334.85,-312 2334.85,-300 2334.85,-300 2334.85,-294 2340.85,-288 2346.85,-288 2346.85,-288 2517.85,-288 2517.85,-288 2523.85,-288 2529.85,-294 2529.85,-300 2529.85,-300 2529.85,-312 2529.85,-312 2529.85,-318 2523.85,-324 2517.85,-324"/>
<text text-anchor="middle" x="2432.35" y="-309" font-family="sans" font-size="10.00">compute_genetic_interaction_scores</text>
<text text-anchor="middle" x="2432.35" y="-298" font-family="sans" font-size="10.00">score: Tau.OI.R1</text>
</g>
<!-- 24&#45;&gt;35 -->
<g id="edge81" class="edge">
<title>24&#45;&gt;35</title>
<path fill="none" stroke="grey" stroke-width="2" d="M2557.74,-359.88C2534.95,-350.26 2506.33,-338.19 2482.18,-328.01"/>
<polygon fill="grey" stroke="grey" stroke-width="2" points="2483.4,-324.73 2472.83,-324.07 2480.68,-331.18 2483.4,-324.73"/>
</g>
<!-- 38 -->
<g id="node39" class="node">
<title>38</title>
<path fill="none" stroke="#78d856" stroke-width="2" d="M3170.85,-324C3170.85,-324 2999.85,-324 2999.85,-324 2993.85,-324 2987.85,-318 2987.85,-312 2987.85,-312 2987.85,-300 2987.85,-300 2987.85,-294 2993.85,-288 2999.85,-288 2999.85,-288 3170.85,-288 3170.85,-288 3176.85,-288 3182.85,-294 3182.85,-300 3182.85,-300 3182.85,-312 3182.85,-312 3182.85,-318 3176.85,-324 3170.85,-324"/>
<text text-anchor="middle" x="3085.35" y="-309" font-family="sans" font-size="10.00">compute_genetic_interaction_scores</text>
<text text-anchor="middle" x="3085.35" y="-298" font-family="sans" font-size="10.00">score: Tau.OI.R2</text>
</g>
<!-- 24&#45;&gt;38 -->
<g id="edge85" class="edge">
<title>24&#45;&gt;38</title>
<path fill="none" stroke="grey" stroke-width="2" d="M2663.02,-367.7C2743.24,-356.17 2881.16,-336.35 2977.49,-322.5"/>
<polygon fill="grey" stroke="grey" stroke-width="2" points="2978.16,-325.94 2987.56,-321.06 2977.16,-319.02 2978.16,-325.94"/>
</g>
<!-- 41 -->
<g id="node42" class="node">
<title>41</title>
<path fill="none" stroke="#78d856" stroke-width="2" d="M3426.85,-324C3426.85,-324 3255.85,-324 3255.85,-324 3249.85,-324 3243.85,-318 3243.85,-312 3243.85,-312 3243.85,-300 3243.85,-300 3243.85,-294 3249.85,-288 3255.85,-288 3255.85,-288 3426.85,-288 3426.85,-288 3432.85,-288 3438.85,-294 3438.85,-300 3438.85,-300 3438.85,-312 3438.85,-312 3438.85,-318 3432.85,-324 3426.85,-324"/>
<text text-anchor="middle" x="3341.35" y="-309" font-family="sans" font-size="10.00">compute_genetic_interaction_scores</text>
<text text-anchor="middle" x="3341.35" y="-298" font-family="sans" font-size="10.00">score: Tau.OI.Avg</text>
</g>
<!-- 24&#45;&gt;41 -->
<g id="edge89" class="edge">
<title>24&#45;&gt;41</title>
<path fill="none" stroke="grey" stroke-width="2" d="M2663.01,-371.76C2772.18,-362.78 2999.99,-343.55 3192.35,-324 3205.69,-322.64 3219.7,-321.15 3233.55,-319.62"/>
<polygon fill="grey" stroke="grey" stroke-width="2" points="3234.06,-323.08 3243.61,-318.5 3233.28,-316.13 3234.06,-323.08"/>
</g>
<!-- 25 -->
<g id="node26" class="node">
<title>25</title>
<path fill="none" stroke="#d8bc56" stroke-width="2" d="M2602.85,-468C2602.85,-468 2503.85,-468 2503.85,-468 2497.85,-468 2491.85,-462 2491.85,-456 2491.85,-456 2491.85,-444 2491.85,-444 2491.85,-438 2497.85,-432 2503.85,-432 2503.85,-432 2602.85,-432 2602.85,-432 2608.85,-432 2614.85,-438 2614.85,-444 2614.85,-444 2614.85,-456 2614.85,-456 2614.85,-462 2608.85,-468 2602.85,-468"/>
<text text-anchor="middle" x="2553.35" y="-447.5" font-family="sans" font-size="10.00">calculate_phenotypes</text>
</g>
<!-- 25&#45;&gt;24 -->
<g id="edge67" class="edge">
<title>25&#45;&gt;24</title>
<path fill="none" stroke="grey" stroke-width="2" d="M2564.48,-431.7C2569.71,-423.56 2576.05,-413.69 2581.83,-404.7"/>
<polygon fill="grey" stroke="grey" stroke-width="2" points="2584.89,-406.41 2587.36,-396.1 2579.01,-402.62 2584.89,-406.41"/>
</g>
<!-- 26 -->
<g id="node27" class="node">
<title>26</title>
<path fill="none" stroke="#d86e56" stroke-width="2" d="M2641.85,-540C2641.85,-540 2554.85,-540 2554.85,-540 2548.85,-540 2542.85,-534 2542.85,-528 2542.85,-528 2542.85,-516 2542.85,-516 2542.85,-510 2548.85,-504 2554.85,-504 2554.85,-504 2641.85,-504 2641.85,-504 2647.85,-504 2653.85,-510 2653.85,-516 2653.85,-516 2653.85,-528 2653.85,-528 2653.85,-534 2647.85,-540 2641.85,-540"/>
<text text-anchor="middle" x="2598.35" y="-525" font-family="sans" font-size="10.00">apply_count_filters</text>
<text text-anchor="middle" x="2598.35" y="-514" font-family="sans" font-size="10.00">screen: screen2023</text>
</g>
<!-- 26&#45;&gt;24 -->
<g id="edge68" class="edge">
<title>26&#45;&gt;24</title>
<path fill="none" stroke="grey" stroke-width="2" d="M2609.4,-503.61C2615.09,-493.62 2621.43,-480.58 2624.35,-468 2627.97,-452.41 2627.97,-447.59 2624.35,-432 2622.25,-422.96 2618.39,-413.68 2614.26,-405.47"/>
<polygon fill="grey" stroke="grey" stroke-width="2" points="2617.21,-403.55 2609.4,-396.39 2611.04,-406.86 2617.21,-403.55"/>
</g>
<!-- 26&#45;&gt;25 -->
<g id="edge69" class="edge">
<title>26&#45;&gt;25</title>
<path fill="none" stroke="grey" stroke-width="2" d="M2587.23,-503.7C2582,-495.56 2575.65,-485.69 2569.87,-476.7"/>
<polygon fill="grey" stroke="grey" stroke-width="2" points="2572.7,-474.62 2564.35,-468.1 2566.81,-478.41 2572.7,-474.62"/>
</g>
<!-- 27&#45;&gt;22 -->
<g id="edge65" class="edge">
<title>27&#45;&gt;22</title>
<path fill="none" stroke="grey" stroke-width="2" d="M1869.31,-215.7C1860.29,-207.05 1849.23,-196.45 1839.41,-187.03"/>
<polygon fill="grey" stroke="grey" stroke-width="2" points="1841.83,-184.5 1832.19,-180.1 1836.99,-189.55 1841.83,-184.5"/>
</g>
<!-- 28 -->
<g id="node29" class="node">
<title>28</title>
<path fill="none" stroke="#d89556" stroke-width="2" d="M2066.35,-180C2066.35,-180 1926.35,-180 1926.35,-180 1920.35,-180 1914.35,-174 1914.35,-168 1914.35,-168 1914.35,-156 1914.35,-156 1914.35,-150 1920.35,-144 1926.35,-144 1926.35,-144 2066.35,-144 2066.35,-144 2072.35,-144 2078.35,-150 2078.35,-156 2078.35,-156 2078.35,-168 2078.35,-168 2078.35,-174 2072.35,-180 2066.35,-180"/>
<text text-anchor="middle" x="1996.35" y="-159.5" font-family="sans" font-size="10.00">calculate_discriminant_scores</text>
</g>
<!-- 28&#45;&gt;0 -->
<g id="edge8" class="edge">
<title>28&#45;&gt;0</title>
<path fill="none" stroke="grey" stroke-width="2" d="M1970.51,-143.97C1941.45,-125.17 1892.53,-94.59 1848.35,-72 1825.64,-60.39 1799.81,-49.06 1777.62,-39.88"/>
<polygon fill="grey" stroke="grey" stroke-width="2" points="1778.93,-36.64 1768.35,-36.08 1776.28,-43.11 1778.93,-36.64"/>
</g>
<!-- 59 -->
<g id="node60" class="node">
<title>59</title>
<path fill="none" stroke="#d8d356" stroke-width="2" d="M1977.85,-108C1977.85,-108 1944.85,-108 1944.85,-108 1938.85,-108 1932.85,-102 1932.85,-96 1932.85,-96 1932.85,-84 1932.85,-84 1932.85,-78 1938.85,-72 1944.85,-72 1944.85,-72 1977.85,-72 1977.85,-72 1983.85,-72 1989.85,-78 1989.85,-84 1989.85,-84 1989.85,-96 1989.85,-96 1989.85,-102 1983.85,-108 1977.85,-108"/>
<text text-anchor="middle" x="1961.35" y="-87.5" font-family="sans" font-size="10.00">call_hits</text>
</g>
<!-- 28&#45;&gt;59 -->
<g id="edge113" class="edge">
<title>28&#45;&gt;59</title>
<path fill="none" stroke="grey" stroke-width="2" d="M1987.7,-143.7C1983.72,-135.73 1978.9,-126.1 1974.48,-117.26"/>
<polygon fill="grey" stroke="grey" stroke-width="2" points="1977.51,-115.48 1969.9,-108.1 1971.25,-118.61 1977.51,-115.48"/>
</g>
<!-- 29&#45;&gt;28 -->
<g id="edge71" class="edge">
<title>29&#45;&gt;28</title>
<path fill="none" stroke="grey" stroke-width="2" d="M2105.81,-298.91C2071.81,-291.9 2036.23,-278.2 2012.35,-252 1997.27,-235.45 1994.03,-209.73 1994.11,-190.18"/>
<polygon fill="grey" stroke="grey" stroke-width="2" points="1997.62,-190.17 1994.45,-180.06 1990.62,-189.93 1997.62,-190.17"/>
</g>
<!-- 30 -->
<g id="node31" class="node">
<title>30</title>
<path fill="none" stroke="#d8ac56" stroke-width="2" d="M2165.35,-252C2165.35,-252 2033.35,-252 2033.35,-252 2027.35,-252 2021.35,-246 2021.35,-240 2021.35,-240 2021.35,-228 2021.35,-228 2021.35,-222 2027.35,-216 2033.35,-216 2033.35,-216 2165.35,-216 2165.35,-216 2171.35,-216 2177.35,-222 2177.35,-228 2177.35,-228 2177.35,-240 2177.35,-240 2177.35,-246 2171.35,-252 2165.35,-252"/>
<text text-anchor="middle" x="2099.35" y="-231.5" font-family="sans" font-size="10.00">calculate_gene_level_scores</text>
</g>
<!-- 29&#45;&gt;30 -->
<g id="edge74" class="edge">
<title>29&#45;&gt;30</title>
<path fill="none" stroke="grey" stroke-width="2" d="M2177.91,-287.88C2164.57,-278.89 2148.03,-267.76 2133.57,-258.03"/>
<polygon fill="grey" stroke="grey" stroke-width="2" points="2135.14,-254.87 2124.89,-252.19 2131.23,-260.68 2135.14,-254.87"/>
</g>
<!-- 47 -->
<g id="node48" class="node">
<title>47</title>
<path fill="none" stroke="#d87d56" stroke-width="2" d="M2725.35,-252C2725.35,-252 2593.35,-252 2593.35,-252 2587.35,-252 2581.35,-246 2581.35,-240 2581.35,-240 2581.35,-228 2581.35,-228 2581.35,-222 2587.35,-216 2593.35,-216 2593.35,-216 2725.35,-216 2725.35,-216 2731.35,-216 2737.35,-222 2737.35,-228 2737.35,-228 2737.35,-240 2737.35,-240 2737.35,-246 2731.35,-252 2725.35,-252"/>
<text text-anchor="middle" x="2659.35" y="-237" font-family="sans" font-size="10.00">calculate_differential_scores</text>
<text text-anchor="middle" x="2659.35" y="-226" font-family="sans" font-size="10.00">rep: OI.R2</text>
</g>
<!-- 29&#45;&gt;47 -->
<g id="edge99" class="edge">
<title>29&#45;&gt;47</title>
<path fill="none" stroke="grey" stroke-width="2" d="M2301.02,-291.23C2393.4,-278.17 2523.75,-259.63 2570.99,-252.13"/>
<polygon fill="grey" stroke="grey" stroke-width="2" points="2571.83,-255.54 2581.13,-250.48 2570.7,-248.63 2571.83,-255.54"/>
</g>
<!-- 30&#45;&gt;28 -->
<g id="edge72" class="edge">
<title>30&#45;&gt;28</title>
<path fill="none" stroke="grey" stroke-width="2" d="M2074.16,-215.88C2060.94,-206.89 2044.56,-195.76 2030.25,-186.03"/>
<polygon fill="grey" stroke="grey" stroke-width="2" points="2031.88,-182.92 2021.65,-180.19 2027.95,-188.71 2031.88,-182.92"/>
</g>
<!-- 31 -->
<g id="node32" class="node">
<title>31</title>
<path fill="none" stroke="#d89556" stroke-width="2" d="M2830.35,-180C2830.35,-180 2690.35,-180 2690.35,-180 2684.35,-180 2678.35,-174 2678.35,-168 2678.35,-168 2678.35,-156 2678.35,-156 2678.35,-150 2684.35,-144 2690.35,-144 2690.35,-144 2830.35,-144 2830.35,-144 2836.35,-144 2842.35,-150 2842.35,-156 2842.35,-156 2842.35,-168 2842.35,-168 2842.35,-174 2836.35,-180 2830.35,-180"/>
<text text-anchor="middle" x="2760.35" y="-159.5" font-family="sans" font-size="10.00">calculate_discriminant_scores</text>
</g>
<!-- 31&#45;&gt;0 -->
<g id="edge9" class="edge">
<title>31&#45;&gt;0</title>
<path fill="none" stroke="grey" stroke-width="2" d="M2731.84,-143.94C2694.9,-122.79 2627.8,-87.65 2565.35,-72 2426.53,-37.21 2008.68,-24.64 1819.39,-20.65"/>
<polygon fill="grey" stroke="grey" stroke-width="2" points="1819.24,-17.14 1809.17,-20.44 1819.1,-24.14 1819.24,-17.14"/>
</g>
<!-- 60 -->
<g id="node61" class="node">
<title>60</title>
<path fill="none" stroke="#d8d356" stroke-width="2" d="M2734.85,-108C2734.85,-108 2701.85,-108 2701.85,-108 2695.85,-108 2689.85,-102 2689.85,-96 2689.85,-96 2689.85,-84 2689.85,-84 2689.85,-78 2695.85,-72 2701.85,-72 2701.85,-72 2734.85,-72 2734.85,-72 2740.85,-72 2746.85,-78 2746.85,-84 2746.85,-84 2746.85,-96 2746.85,-96 2746.85,-102 2740.85,-108 2734.85,-108"/>
<text text-anchor="middle" x="2718.35" y="-87.5" font-family="sans" font-size="10.00">call_hits</text>
</g>
<!-- 31&#45;&gt;60 -->
<g id="edge114" class="edge">
<title>31&#45;&gt;60</title>
<path fill="none" stroke="grey" stroke-width="2" d="M2749.97,-143.7C2745.09,-135.56 2739.17,-125.69 2733.77,-116.7"/>
<polygon fill="grey" stroke="grey" stroke-width="2" points="2736.76,-114.88 2728.62,-108.1 2730.76,-118.48 2736.76,-114.88"/>
</g>
<!-- 32&#45;&gt;31 -->
<g id="edge75" class="edge">
<title>32&#45;&gt;31</title>
<path fill="none" stroke="grey" stroke-width="2" d="M2783.22,-287.87C2778.79,-263.67 2770.64,-219.21 2765.37,-190.39"/>
<polygon fill="grey" stroke="grey" stroke-width="2" points="2768.74,-189.4 2763.5,-180.19 2761.86,-190.66 2768.74,-189.4"/>
</g>
<!-- 33 -->
<g id="node34" class="node">
<title>33</title>
<path fill="none" stroke="#d8ac56" stroke-width="2" d="M2937.35,-252C2937.35,-252 2805.35,-252 2805.35,-252 2799.35,-252 2793.35,-246 2793.35,-240 2793.35,-240 2793.35,-228 2793.35,-228 2793.35,-222 2799.35,-216 2805.35,-216 2805.35,-216 2937.35,-216 2937.35,-216 2943.35,-216 2949.35,-222 2949.35,-228 2949.35,-228 2949.35,-240 2949.35,-240 2949.35,-246 2943.35,-252 2937.35,-252"/>
<text text-anchor="middle" x="2871.35" y="-231.5" font-family="sans" font-size="10.00">calculate_gene_level_scores</text>
</g>
<!-- 32&#45;&gt;33 -->
<g id="edge78" class="edge">
<title>32&#45;&gt;33</title>
<path fill="none" stroke="grey" stroke-width="2" d="M2807.36,-287.7C2818.07,-278.88 2831.24,-268.03 2842.85,-258.47"/>
<polygon fill="grey" stroke="grey" stroke-width="2" points="2845.09,-261.16 2850.58,-252.1 2840.64,-255.76 2845.09,-261.16"/>
</g>
<!-- 48 -->
<g id="node49" class="node">
<title>48</title>
<path fill="none" stroke="#d87d56" stroke-width="2" d="M3111.35,-252C3111.35,-252 2979.35,-252 2979.35,-252 2973.35,-252 2967.35,-246 2967.35,-240 2967.35,-240 2967.35,-228 2967.35,-228 2967.35,-222 2973.35,-216 2979.35,-216 2979.35,-216 3111.35,-216 3111.35,-216 3117.35,-216 3123.35,-222 3123.35,-228 3123.35,-228 3123.35,-240 3123.35,-240 3123.35,-246 3117.35,-252 3111.35,-252"/>
<text text-anchor="middle" x="3045.35" y="-237" font-family="sans" font-size="10.00">calculate_differential_scores</text>
<text text-anchor="middle" x="3045.35" y="-226" font-family="sans" font-size="10.00">rep: OI.Avg</text>
</g>
<!-- 32&#45;&gt;48 -->
<g id="edge101" class="edge">
<title>32&#45;&gt;48</title>
<path fill="none" stroke="grey" stroke-width="2" d="M2849.38,-287.97C2886.51,-277.93 2933.65,-265.19 2972.39,-254.72"/>
<polygon fill="grey" stroke="grey" stroke-width="2" points="2973.3,-258.1 2982.04,-252.11 2971.48,-251.34 2973.3,-258.1"/>
</g>
<!-- 33&#45;&gt;31 -->
<g id="edge76" class="edge">
<title>33&#45;&gt;31</title>
<path fill="none" stroke="grey" stroke-width="2" d="M2844.2,-215.88C2829.82,-206.81 2811.97,-195.55 2796.44,-185.76"/>
<polygon fill="grey" stroke="grey" stroke-width="2" points="2797.94,-182.56 2787.61,-180.19 2794.2,-188.48 2797.94,-182.56"/>
</g>
<!-- 34 -->
<g id="node35" class="node">
<title>34</title>
<path fill="none" stroke="#d89556" stroke-width="2" d="M2445.35,-180C2445.35,-180 2305.35,-180 2305.35,-180 2299.35,-180 2293.35,-174 2293.35,-168 2293.35,-168 2293.35,-156 2293.35,-156 2293.35,-150 2299.35,-144 2305.35,-144 2305.35,-144 2445.35,-144 2445.35,-144 2451.35,-144 2457.35,-150 2457.35,-156 2457.35,-156 2457.35,-168 2457.35,-168 2457.35,-174 2451.35,-180 2445.35,-180"/>
<text text-anchor="middle" x="2375.35" y="-159.5" font-family="sans" font-size="10.00">calculate_discriminant_scores</text>
</g>
<!-- 34&#45;&gt;0 -->
<g id="edge10" class="edge">
<title>34&#45;&gt;0</title>
<path fill="none" stroke="grey" stroke-width="2" d="M2346.07,-143.9C2309.19,-123.23 2243.28,-89.1 2182.35,-72 2059.85,-37.62 1912.89,-25.5 1819.09,-21.25"/>
<polygon fill="grey" stroke="grey" stroke-width="2" points="1819.19,-17.75 1809.05,-20.82 1818.89,-24.75 1819.19,-17.75"/>
</g>
<!-- 61 -->
<g id="node62" class="node">
<title>61</title>
<path fill="none" stroke="#d8d356" stroke-width="2" d="M2350.85,-108C2350.85,-108 2317.85,-108 2317.85,-108 2311.85,-108 2305.85,-102 2305.85,-96 2305.85,-96 2305.85,-84 2305.85,-84 2305.85,-78 2311.85,-72 2317.85,-72 2317.85,-72 2350.85,-72 2350.85,-72 2356.85,-72 2362.85,-78 2362.85,-84 2362.85,-84 2362.85,-96 2362.85,-96 2362.85,-102 2356.85,-108 2350.85,-108"/>
<text text-anchor="middle" x="2334.35" y="-87.5" font-family="sans" font-size="10.00">call_hits</text>
</g>
<!-- 34&#45;&gt;61 -->
<g id="edge115" class="edge">
<title>34&#45;&gt;61</title>
<path fill="none" stroke="grey" stroke-width="2" d="M2365.22,-143.7C2360.5,-135.64 2354.79,-125.89 2349.57,-116.98"/>
<polygon fill="grey" stroke="grey" stroke-width="2" points="2352.45,-114.96 2344.37,-108.1 2346.4,-118.5 2352.45,-114.96"/>
</g>
<!-- 35&#45;&gt;34 -->
<g id="edge79" class="edge">
<title>35&#45;&gt;34</title>
<path fill="none" stroke="grey" stroke-width="2" d="M2419.22,-287.64C2412.19,-277.66 2403.86,-264.62 2398.35,-252 2389.65,-232.07 2383.7,-208.14 2380.03,-190.12"/>
<polygon fill="grey" stroke="grey" stroke-width="2" points="2383.46,-189.42 2378.13,-180.26 2376.59,-190.75 2383.46,-189.42"/>
</g>
<!-- 36 -->
<g id="node37" class="node">
<title>36</title>
<path fill="none" stroke="#d8ac56" stroke-width="2" d="M2551.35,-252C2551.35,-252 2419.35,-252 2419.35,-252 2413.35,-252 2407.35,-246 2407.35,-240 2407.35,-240 2407.35,-228 2407.35,-228 2407.35,-222 2413.35,-216 2419.35,-216 2419.35,-216 2551.35,-216 2551.35,-216 2557.35,-216 2563.35,-222 2563.35,-228 2563.35,-228 2563.35,-240 2563.35,-240 2563.35,-246 2557.35,-252 2551.35,-252"/>
<text text-anchor="middle" x="2485.35" y="-231.5" font-family="sans" font-size="10.00">calculate_gene_level_scores</text>
</g>
<!-- 35&#45;&gt;36 -->
<g id="edge82" class="edge">
<title>35&#45;&gt;36</title>
<path fill="none" stroke="grey" stroke-width="2" d="M2445.45,-287.7C2451.74,-279.39 2459.4,-269.28 2466.32,-260.14"/>
<polygon fill="grey" stroke="grey" stroke-width="2" points="2469.16,-262.19 2472.4,-252.1 2463.58,-257.96 2469.16,-262.19"/>
</g>
<!-- 35&#45;&gt;46 -->
<g id="edge98" class="edge">
<title>35&#45;&gt;46</title>
<path fill="none" stroke="grey" stroke-width="2" d="M2393.46,-287.88C2371.72,-278.31 2344.45,-266.3 2321.39,-256.15"/>
<polygon fill="grey" stroke="grey" stroke-width="2" points="2322.68,-252.89 2312.12,-252.07 2319.86,-259.3 2322.68,-252.89"/>
</g>
<!-- 36&#45;&gt;34 -->
<g id="edge80" class="edge">
<title>36&#45;&gt;34</title>
<path fill="none" stroke="grey" stroke-width="2" d="M2458.44,-215.88C2444.19,-206.81 2426.51,-195.55 2411.12,-185.76"/>
<polygon fill="grey" stroke="grey" stroke-width="2" points="2412.68,-182.61 2402.37,-180.19 2408.92,-188.51 2412.68,-182.61"/>
</g>
<!-- 37 -->
<g id="node38" class="node">
<title>37</title>
<path fill="none" stroke="#d89556" stroke-width="2" d="M3216.35,-180C3216.35,-180 3076.35,-180 3076.35,-180 3070.35,-180 3064.35,-174 3064.35,-168 3064.35,-168 3064.35,-156 3064.35,-156 3064.35,-150 3070.35,-144 3076.35,-144 3076.35,-144 3216.35,-144 3216.35,-144 3222.35,-144 3228.35,-150 3228.35,-156 3228.35,-156 3228.35,-168 3228.35,-168 3228.35,-174 3222.35,-180 3216.35,-180"/>
<text text-anchor="middle" x="3146.35" y="-159.5" font-family="sans" font-size="10.00">calculate_discriminant_scores</text>
</g>
<!-- 37&#45;&gt;0 -->
<g id="edge11" class="edge">
<title>37&#45;&gt;0</title>
<path fill="none" stroke="grey" stroke-width="2" d="M3117.58,-143.93C3079.95,-122.61 3011.26,-87.09 2947.35,-72 2733.53,-21.5 2067.33,-18 1818.96,-18.52"/>
<polygon fill="grey" stroke="grey" stroke-width="2" points="1818.86,-15.02 1808.87,-18.55 1818.88,-22.02 1818.86,-15.02"/>
</g>
<!-- 62 -->
<g id="node63" class="node">
<title>62</title>
<path fill="none" stroke="#d8d356" stroke-width="2" d="M3140.85,-108C3140.85,-108 3107.85,-108 3107.85,-108 3101.85,-108 3095.85,-102 3095.85,-96 3095.85,-96 3095.85,-84 3095.85,-84 3095.85,-78 3101.85,-72 3107.85,-72 3107.85,-72 3140.85,-72 3140.85,-72 3146.85,-72 3152.85,-78 3152.85,-84 3152.85,-84 3152.85,-96 3152.85,-96 3152.85,-102 3146.85,-108 3140.85,-108"/>
<text text-anchor="middle" x="3124.35" y="-87.5" font-family="sans" font-size="10.00">call_hits</text>
</g>
<!-- 37&#45;&gt;62 -->
<g id="edge116" class="edge">
<title>37&#45;&gt;62</title>
<path fill="none" stroke="grey" stroke-width="2" d="M3140.91,-143.7C3138.46,-135.9 3135.51,-126.51 3132.78,-117.83"/>
<polygon fill="grey" stroke="grey" stroke-width="2" points="3136.07,-116.59 3129.73,-108.1 3129.39,-118.69 3136.07,-116.59"/>
</g>
<!-- 38&#45;&gt;37 -->
<g id="edge83" class="edge">
<title>38&#45;&gt;37</title>
<path fill="none" stroke="grey" stroke-width="2" d="M3105.24,-287.79C3114.98,-278.24 3125.95,-265.57 3132.35,-252 3141.46,-232.7 3144.83,-208.69 3146,-190.47"/>
<polygon fill="grey" stroke="grey" stroke-width="2" points="3149.51,-190.38 3146.47,-180.23 3142.52,-190.06 3149.51,-190.38"/>
</g>
<!-- 39 -->
<g id="node40" class="node">
<title>39</title>
<path fill="none" stroke="#d8ac56" stroke-width="2" d="M3323.35,-252C3323.35,-252 3191.35,-252 3191.35,-252 3185.35,-252 3179.35,-246 3179.35,-240 3179.35,-240 3179.35,-228 3179.35,-228 3179.35,-222 3185.35,-216 3191.35,-216 3191.35,-216 3323.35,-216 3323.35,-216 3329.35,-216 3335.35,-222 3335.35,-228 3335.35,-228 3335.35,-240 3335.35,-240 3335.35,-246 3329.35,-252 3323.35,-252"/>
<text text-anchor="middle" x="3257.35" y="-231.5" font-family="sans" font-size="10.00">calculate_gene_level_scores</text>
</g>
<!-- 38&#45;&gt;39 -->
<g id="edge86" class="edge">
<title>38&#45;&gt;39</title>
<path fill="none" stroke="grey" stroke-width="2" d="M3127.43,-287.88C3151.15,-278.22 3180.97,-266.09 3206.05,-255.88"/>
<polygon fill="grey" stroke="grey" stroke-width="2" points="3207.47,-259.08 3215.41,-252.07 3204.83,-252.6 3207.47,-259.08"/>
</g>
<!-- 38&#45;&gt;47 -->
<g id="edge100" class="edge">
<title>38&#45;&gt;47</title>
<path fill="none" stroke="grey" stroke-width="2" d="M2987.62,-288.94C2915.27,-277.05 2817.54,-260.99 2747.56,-249.49"/>
<polygon fill="grey" stroke="grey" stroke-width="2" points="2747.88,-246 2737.45,-247.83 2746.75,-252.91 2747.88,-246"/>
</g>
<!-- 39&#45;&gt;37 -->
<g id="edge84" class="edge">
<title>39&#45;&gt;37</title>
<path fill="none" stroke="grey" stroke-width="2" d="M3230.2,-215.88C3215.82,-206.81 3197.97,-195.55 3182.44,-185.76"/>
<polygon fill="grey" stroke="grey" stroke-width="2" points="3183.94,-182.56 3173.61,-180.19 3180.2,-188.48 3183.94,-182.56"/>
</g>
<!-- 40 -->
<g id="node41" class="node">
<title>40</title>
<path fill="none" stroke="#d89556" stroke-width="2" d="M3417.35,-180C3417.35,-180 3277.35,-180 3277.35,-180 3271.35,-180 3265.35,-174 3265.35,-168 3265.35,-168 3265.35,-156 3265.35,-156 3265.35,-150 3271.35,-144 3277.35,-144 3277.35,-144 3417.35,-144 3417.35,-144 3423.35,-144 3429.35,-150 3429.35,-156 3429.35,-156 3429.35,-168 3429.35,-168 3429.35,-174 3423.35,-180 3417.35,-180"/>
<text text-anchor="middle" x="3347.35" y="-159.5" font-family="sans" font-size="10.00">calculate_discriminant_scores</text>
</g>
<!-- 40&#45;&gt;0 -->
<g id="edge12" class="edge">
<title>40&#45;&gt;0</title>
<path fill="none" stroke="grey" stroke-width="2" d="M3320.8,-143.86C3286.02,-122.46 3222.38,-86.86 3162.35,-72 3032.93,-39.97 2119.47,-24.5 1819.52,-20.25"/>
<polygon fill="grey" stroke="grey" stroke-width="2" points="1819.16,-16.74 1809.11,-20.1 1819.06,-23.74 1819.16,-16.74"/>
</g>
<!-- 63 -->
<g id="node64" class="node">
<title>63</title>
<path fill="none" stroke="#d8d356" stroke-width="2" d="M3335.85,-108C3335.85,-108 3302.85,-108 3302.85,-108 3296.85,-108 3290.85,-102 3290.85,-96 3290.85,-96 3290.85,-84 3290.85,-84 3290.85,-78 3296.85,-72 3302.85,-72 3302.85,-72 3335.85,-72 3335.85,-72 3341.85,-72 3347.85,-78 3347.85,-84 3347.85,-84 3347.85,-96 3347.85,-96 3347.85,-102 3341.85,-108 3335.85,-108"/>
<text text-anchor="middle" x="3319.35" y="-87.5" font-family="sans" font-size="10.00">call_hits</text>
</g>
<!-- 40&#45;&gt;63 -->
<g id="edge117" class="edge">
<title>40&#45;&gt;63</title>
<path fill="none" stroke="grey" stroke-width="2" d="M3340.43,-143.7C3337.28,-135.81 3333.47,-126.3 3329.97,-117.55"/>
<polygon fill="grey" stroke="grey" stroke-width="2" points="3333.16,-116.09 3326.19,-108.1 3326.66,-118.69 3333.16,-116.09"/>
</g>
<!-- 41&#45;&gt;40 -->
<g id="edge87" class="edge">
<title>41&#45;&gt;40</title>
<path fill="none" stroke="grey" stroke-width="2" d="M3342.42,-287.82C3343.05,-277.45 3343.81,-263.97 3344.35,-252 3345.29,-231.28 3346.07,-207.84 3346.6,-190.21"/>
<polygon fill="grey" stroke="grey" stroke-width="2" points="3350.1,-190.16 3346.89,-180.07 3343.1,-189.96 3350.1,-190.16"/>
</g>
<!-- 42 -->
<g id="node43" class="node">
<title>42</title>
<path fill="none" stroke="#d8ac56" stroke-width="2" d="M3535.35,-252C3535.35,-252 3403.35,-252 3403.35,-252 3397.35,-252 3391.35,-246 3391.35,-240 3391.35,-240 3391.35,-228 3391.35,-228 3391.35,-222 3397.35,-216 3403.35,-216 3403.35,-216 3535.35,-216 3535.35,-216 3541.35,-216 3547.35,-222 3547.35,-228 3547.35,-228 3547.35,-240 3547.35,-240 3547.35,-246 3541.35,-252 3535.35,-252"/>
<text text-anchor="middle" x="3469.35" y="-231.5" font-family="sans" font-size="10.00">calculate_gene_level_scores</text>
</g>
<!-- 41&#45;&gt;42 -->
<g id="edge90" class="edge">
<title>41&#45;&gt;42</title>
<path fill="none" stroke="grey" stroke-width="2" d="M3372.67,-287.88C3389.56,-278.64 3410.6,-267.13 3428.74,-257.21"/>
<polygon fill="grey" stroke="grey" stroke-width="2" points="3430.83,-260.06 3437.92,-252.19 3427.47,-253.92 3430.83,-260.06"/>
</g>
<!-- 41&#45;&gt;48 -->
<g id="edge102" class="edge">
<title>41&#45;&gt;48</title>
<path fill="none" stroke="grey" stroke-width="2" d="M3269.32,-287.97C3226.45,-277.83 3171.9,-264.93 3127.37,-254.4"/>
<polygon fill="grey" stroke="grey" stroke-width="2" points="3127.99,-250.95 3117.45,-252.05 3126.38,-257.76 3127.99,-250.95"/>
</g>
<!-- 42&#45;&gt;40 -->
<g id="edge88" class="edge">
<title>42&#45;&gt;40</title>
<path fill="none" stroke="grey" stroke-width="2" d="M3439.51,-215.88C3423.41,-206.64 3403.35,-195.13 3386.06,-185.21"/>
<polygon fill="grey" stroke="grey" stroke-width="2" points="3387.73,-182.13 3377.31,-180.19 3384.24,-188.2 3387.73,-182.13"/>
</g>
<!-- 43&#45;&gt;0 -->
<g id="edge13" class="edge">
<title>43&#45;&gt;0</title>
<path fill="none" stroke="grey" stroke-width="2" d="M495.9,-215.74C530.53,-180.95 614.78,-103.09 703.35,-72 789.22,-41.86 1392.72,-26 1629.42,-20.88"/>
<polygon fill="grey" stroke="grey" stroke-width="2" points="1629.81,-24.37 1639.73,-20.66 1629.65,-17.37 1629.81,-24.37"/>
</g>
<!-- 55 -->
<g id="node56" class="node">
<title>55</title>
<path fill="none" stroke="#d8d356" stroke-width="2" d="M523.35,-108C523.35,-108 455.35,-108 455.35,-108 449.35,-108 443.35,-102 443.35,-96 443.35,-96 443.35,-84 443.35,-84 443.35,-78 449.35,-72 455.35,-72 455.35,-72 523.35,-72 523.35,-72 529.35,-72 535.35,-78 535.35,-84 535.35,-84 535.35,-96 535.35,-96 535.35,-102 529.35,-108 523.35,-108"/>
<text text-anchor="middle" x="489.35" y="-93" font-family="sans" font-size="10.00">call_hits</text>
<text text-anchor="middle" x="489.35" y="-82" font-family="sans" font-size="10.00">score: Nu.OI.R1</text>
</g>
<!-- 43&#45;&gt;55 -->
<g id="edge109" class="edge">
<title>43&#45;&gt;55</title>
<path fill="none" stroke="grey" stroke-width="2" d="M480.56,-215.87C482.26,-191.67 485.39,-147.21 487.42,-118.39"/>
<polygon fill="grey" stroke="grey" stroke-width="2" points="490.93,-118.41 488.14,-108.19 483.95,-117.92 490.93,-118.41"/>
</g>
<!-- 44&#45;&gt;0 -->
<g id="edge14" class="edge">
<title>44&#45;&gt;0</title>
<path fill="none" stroke="grey" stroke-width="2" d="M881.53,-215.96C915.38,-181.58 997.73,-104.43 1084.35,-72 1181.57,-35.6 1476.01,-24.11 1629.29,-20.55"/>
<polygon fill="grey" stroke="grey" stroke-width="2" points="1629.71,-24.04 1639.63,-20.32 1629.56,-17.05 1629.71,-24.04"/>
</g>
<!-- 56 -->
<g id="node57" class="node">
<title>56</title>
<path fill="none" stroke="#d8d356" stroke-width="2" d="M909.35,-108C909.35,-108 841.35,-108 841.35,-108 835.35,-108 829.35,-102 829.35,-96 829.35,-96 829.35,-84 829.35,-84 829.35,-78 835.35,-72 841.35,-72 841.35,-72 909.35,-72 909.35,-72 915.35,-72 921.35,-78 921.35,-84 921.35,-84 921.35,-96 921.35,-96 921.35,-102 915.35,-108 909.35,-108"/>
<text text-anchor="middle" x="875.35" y="-93" font-family="sans" font-size="10.00">call_hits</text>
<text text-anchor="middle" x="875.35" y="-82" font-family="sans" font-size="10.00">score: Nu.OI.R2</text>
</g>
<!-- 44&#45;&gt;56 -->
<g id="edge110" class="edge">
<title>44&#45;&gt;56</title>
<path fill="none" stroke="grey" stroke-width="2" d="M866.56,-215.87C868.26,-191.67 871.39,-147.21 873.42,-118.39"/>
<polygon fill="grey" stroke="grey" stroke-width="2" points="876.93,-118.41 874.14,-108.19 869.95,-117.92 876.93,-118.41"/>
</g>
<!-- 45&#45;&gt;0 -->
<g id="edge15" class="edge">
<title>45&#45;&gt;0</title>
<path fill="none" stroke="grey" stroke-width="2" d="M1270.13,-215.96C1291.12,-197.29 1326.48,-166.95 1359.35,-144 1411.29,-107.74 1423.36,-95.06 1482.35,-72 1529.47,-53.58 1584.38,-40.9 1629.97,-32.57"/>
<polygon fill="grey" stroke="grey" stroke-width="2" points="1630.62,-36.01 1639.85,-30.81 1629.39,-29.12 1630.62,-36.01"/>
</g>
<!-- 57 -->
<g id="node58" class="node">
<title>57</title>
<path fill="none" stroke="#d8d356" stroke-width="2" d="M1290.85,-108C1290.85,-108 1217.85,-108 1217.85,-108 1211.85,-108 1205.85,-102 1205.85,-96 1205.85,-96 1205.85,-84 1205.85,-84 1205.85,-78 1211.85,-72 1217.85,-72 1217.85,-72 1290.85,-72 1290.85,-72 1296.85,-72 1302.85,-78 1302.85,-84 1302.85,-84 1302.85,-96 1302.85,-96 1302.85,-102 1296.85,-108 1290.85,-108"/>
<text text-anchor="middle" x="1254.35" y="-93" font-family="sans" font-size="10.00">call_hits</text>
<text text-anchor="middle" x="1254.35" y="-82" font-family="sans" font-size="10.00">score: Nu.OI.Avg</text>
</g>
<!-- 45&#45;&gt;57 -->
<g id="edge111" class="edge">
<title>45&#45;&gt;57</title>
<path fill="none" stroke="grey" stroke-width="2" d="M1251.71,-215.87C1252.23,-191.67 1253.17,-147.21 1253.77,-118.39"/>
<polygon fill="grey" stroke="grey" stroke-width="2" points="1257.28,-118.26 1253.99,-108.19 1250.28,-118.11 1257.28,-118.26"/>
</g>
<!-- 46&#45;&gt;0 -->
<g id="edge16" class="edge">
<title>46&#45;&gt;0</title>
<path fill="none" stroke="grey" stroke-width="2" d="M2236.55,-215.78C2215.93,-205.83 2189.9,-192.79 2167.35,-180 2089.83,-136.01 2081.14,-105.05 1998.35,-72 1941.18,-49.17 1873.26,-35.95 1819.35,-28.42"/>
<polygon fill="grey" stroke="grey" stroke-width="2" points="1819.48,-24.91 1809.11,-27.03 1818.55,-31.84 1819.48,-24.91"/>
</g>
<!-- 64 -->
<g id="node65" class="node">
<title>64</title>
<path fill="none" stroke="#d8d356" stroke-width="2" d="M2256.35,-180C2256.35,-180 2188.35,-180 2188.35,-180 2182.35,-180 2176.35,-174 2176.35,-168 2176.35,-168 2176.35,-156 2176.35,-156 2176.35,-150 2182.35,-144 2188.35,-144 2188.35,-144 2256.35,-144 2256.35,-144 2262.35,-144 2268.35,-150 2268.35,-156 2268.35,-156 2268.35,-168 2268.35,-168 2268.35,-174 2262.35,-180 2256.35,-180"/>
<text text-anchor="middle" x="2222.35" y="-165" font-family="sans" font-size="10.00">call_hits</text>
<text text-anchor="middle" x="2222.35" y="-154" font-family="sans" font-size="10.00">score: Nu.OI.R1</text>
</g>
<!-- 46&#45;&gt;64 -->
<g id="edge118" class="edge">
<title>46&#45;&gt;64</title>
<path fill="none" stroke="grey" stroke-width="2" d="M2260.75,-215.7C2254.76,-207.47 2247.48,-197.48 2240.87,-188.42"/>
<polygon fill="grey" stroke="grey" stroke-width="2" points="2243.53,-186.13 2234.81,-180.1 2237.87,-190.25 2243.53,-186.13"/>
</g>
<!-- 47&#45;&gt;0 -->
<g id="edge17" class="edge">
<title>47&#45;&gt;0</title>
<path fill="none" stroke="grey" stroke-width="2" d="M2622.47,-215.85C2601.41,-205.82 2574.65,-192.68 2551.35,-180 2469.4,-135.41 2460.17,-100.56 2371.35,-72 2271.32,-39.84 1973.75,-26.41 1819.48,-21.49"/>
<polygon fill="grey" stroke="grey" stroke-width="2" points="1819.18,-17.98 1809.08,-21.16 1818.97,-24.97 1819.18,-17.98"/>
</g>
<!-- 65 -->
<g id="node66" class="node">
<title>65</title>
<path fill="none" stroke="#d8d356" stroke-width="2" d="M2640.35,-180C2640.35,-180 2572.35,-180 2572.35,-180 2566.35,-180 2560.35,-174 2560.35,-168 2560.35,-168 2560.35,-156 2560.35,-156 2560.35,-150 2566.35,-144 2572.35,-144 2572.35,-144 2640.35,-144 2640.35,-144 2646.35,-144 2652.35,-150 2652.35,-156 2652.35,-156 2652.35,-168 2652.35,-168 2652.35,-174 2646.35,-180 2640.35,-180"/>
<text text-anchor="middle" x="2606.35" y="-165" font-family="sans" font-size="10.00">call_hits</text>
<text text-anchor="middle" x="2606.35" y="-154" font-family="sans" font-size="10.00">score: Nu.OI.R2</text>
</g>
<!-- 47&#45;&gt;65 -->
<g id="edge119" class="edge">
<title>47&#45;&gt;65</title>
<path fill="none" stroke="grey" stroke-width="2" d="M2646.25,-215.7C2639.96,-207.39 2632.31,-197.28 2625.39,-188.14"/>
<polygon fill="grey" stroke="grey" stroke-width="2" points="2628.13,-185.96 2619.3,-180.1 2622.55,-190.19 2628.13,-185.96"/>
</g>
<!-- 48&#45;&gt;0 -->
<g id="edge18" class="edge">
<title>48&#45;&gt;0</title>
<path fill="none" stroke="grey" stroke-width="2" d="M3006.75,-215.96C2984.93,-206.02 2957.3,-192.92 2933.35,-180 2852.26,-136.23 2844.4,-99.2 2756.35,-72 2668.32,-44.81 2057.06,-27.13 1818.97,-21.2"/>
<polygon fill="grey" stroke="grey" stroke-width="2" points="1819.03,-17.71 1808.94,-20.96 1818.85,-24.7 1819.03,-17.71"/>
</g>
<!-- 66 -->
<g id="node67" class="node">
<title>66</title>
<path fill="none" stroke="#d8d356" stroke-width="2" d="M3026.85,-180C3026.85,-180 2953.85,-180 2953.85,-180 2947.85,-180 2941.85,-174 2941.85,-168 2941.85,-168 2941.85,-156 2941.85,-156 2941.85,-150 2947.85,-144 2953.85,-144 2953.85,-144 3026.85,-144 3026.85,-144 3032.85,-144 3038.85,-150 3038.85,-156 3038.85,-156 3038.85,-168 3038.85,-168 3038.85,-174 3032.85,-180 3026.85,-180"/>
<text text-anchor="middle" x="2990.35" y="-165" font-family="sans" font-size="10.00">call_hits</text>
<text text-anchor="middle" x="2990.35" y="-154" font-family="sans" font-size="10.00">score: Nu.OI.Avg</text>
</g>
<!-- 48&#45;&gt;66 -->
<g id="edge120" class="edge">
<title>48&#45;&gt;66</title>
<path fill="none" stroke="grey" stroke-width="2" d="M3031.76,-215.7C3025.23,-207.39 3017.28,-197.28 3010.11,-188.14"/>
<polygon fill="grey" stroke="grey" stroke-width="2" points="3012.72,-185.81 3003.79,-180.1 3007.22,-190.13 3012.72,-185.81"/>
</g>
<!-- 49&#45;&gt;0 -->
<g id="edge19" class="edge">
<title>49&#45;&gt;0</title>
<path fill="none" stroke="grey" stroke-width="2" d="M269.11,-80.29C280.85,-77.1 294.64,-73.83 307.35,-72 563.57,-35.13 1355.04,-23.07 1629.48,-19.94"/>
<polygon fill="grey" stroke="grey" stroke-width="2" points="1629.85,-23.44 1639.81,-19.82 1629.77,-16.44 1629.85,-23.44"/>
</g>
<!-- 50&#45;&gt;0 -->
<g id="edge20" class="edge">
<title>50&#45;&gt;0</title>
<path fill="none" stroke="grey" stroke-width="2" d="M413.06,-77.67C419.93,-75.4 427.32,-73.31 434.35,-72 663.48,-29.26 1371.7,-20.99 1629.37,-19.38"/>
<polygon fill="grey" stroke="grey" stroke-width="2" points="1629.47,-22.88 1639.45,-19.32 1629.43,-15.88 1629.47,-22.88"/>
</g>
<!-- 51&#45;&gt;0 -->
<g id="edge21" class="edge">
<title>51&#45;&gt;0</title>
<path fill="none" stroke="grey" stroke-width="2" d="M1176.96,-77.61C1183.26,-75.45 1189.97,-73.43 1196.35,-72 1345.5,-38.61 1523.08,-26.24 1629.6,-21.67"/>
<polygon fill="grey" stroke="grey" stroke-width="2" points="1629.84,-25.16 1639.69,-21.25 1629.55,-18.17 1629.84,-25.16"/>
</g>
<!-- 52&#45;&gt;0 -->
<g id="edge22" class="edge">
<title>52&#45;&gt;0</title>
<path fill="none" stroke="grey" stroke-width="2" d="M799.08,-77.76C805.95,-75.49 813.33,-73.37 820.35,-72 973.05,-42.13 1430.04,-26.77 1629.49,-21.33"/>
<polygon fill="grey" stroke="grey" stroke-width="2" points="1629.76,-24.83 1639.66,-21.06 1629.57,-17.83 1629.76,-24.83"/>
</g>
<!-- 53&#45;&gt;0 -->
<g id="edge23" class="edge">
<title>53&#45;&gt;0</title>
<path fill="none" stroke="grey" stroke-width="2" d="M1588.09,-76.81C1611.98,-66.67 1646.53,-52.02 1674.86,-40"/>
<polygon fill="grey" stroke="grey" stroke-width="2" points="1676.36,-43.16 1684.2,-36.03 1673.63,-36.72 1676.36,-43.16"/>
</g>
<!-- 54&#45;&gt;0 -->
<g id="edge24" class="edge">
<title>54&#45;&gt;0</title>
<path fill="none" stroke="grey" stroke-width="2" d="M1702.52,-71.7C1705.79,-63.81 1709.73,-54.3 1713.35,-45.55"/>
<polygon fill="grey" stroke="grey" stroke-width="2" points="1716.67,-46.68 1717.27,-36.1 1710.21,-44 1716.67,-46.68"/>
</g>
<!-- 55&#45;&gt;0 -->
<g id="edge25" class="edge">
<title>55&#45;&gt;0</title>
<path fill="none" stroke="grey" stroke-width="2" d="M535.7,-77.01C544.81,-75.03 554.34,-73.23 563.35,-72 768.45,-43.99 1390.57,-26.83 1629.5,-21.13"/>
<polygon fill="grey" stroke="grey" stroke-width="2" points="1629.64,-24.62 1639.55,-20.89 1629.47,-17.63 1629.64,-24.62"/>
</g>
<!-- 56&#45;&gt;0 -->
<g id="edge26" class="edge">
<title>56&#45;&gt;0</title>
<path fill="none" stroke="grey" stroke-width="2" d="M921.72,-77.17C930.83,-75.18 940.36,-73.33 949.35,-72 1192.65,-35.96 1482.62,-24.37 1629.29,-20.69"/>
<polygon fill="grey" stroke="grey" stroke-width="2" points="1629.68,-24.18 1639.59,-20.44 1629.51,-17.18 1629.68,-24.18"/>
</g>
<!-- 57&#45;&gt;0 -->
<g id="edge27" class="edge">
<title>57&#45;&gt;0</title>
<path fill="none" stroke="grey" stroke-width="2" d="M1302.87,-75.97C1309.07,-74.52 1315.34,-73.15 1321.35,-72 1426.13,-51.89 1547.72,-37.05 1629.71,-28.26"/>
<polygon fill="grey" stroke="grey" stroke-width="2" points="1630.18,-31.73 1639.76,-27.2 1629.44,-24.77 1630.18,-31.73"/>
</g>
<!-- 58&#45;&gt;0 -->
<g id="edge28" class="edge">
<title>58&#45;&gt;0</title>
<path fill="none" stroke="grey" stroke-width="2" d="M1789.85,-71.7C1778.89,-62.88 1765.41,-52.03 1753.53,-42.47"/>
<polygon fill="grey" stroke="grey" stroke-width="2" points="1755.6,-39.65 1745.61,-36.1 1751.21,-45.1 1755.6,-39.65"/>
</g>
<!-- 59&#45;&gt;0 -->
<g id="edge29" class="edge">
<title>59&#45;&gt;0</title>
<path fill="none" stroke="grey" stroke-width="2" d="M1932.77,-80.56C1898.05,-70.3 1838.37,-52.68 1791.75,-38.91"/>
<polygon fill="grey" stroke="grey" stroke-width="2" points="1792.59,-35.51 1782.01,-36.03 1790.61,-42.22 1792.59,-35.51"/>
</g>
<!-- 60&#45;&gt;0 -->
<g id="edge30" class="edge">
<title>60&#45;&gt;0</title>
<path fill="none" stroke="grey" stroke-width="2" d="M2689.63,-80.04C2678.69,-76.98 2666.05,-73.87 2654.35,-72 2351.91,-23.73 1987.99,-17.87 1819.07,-18.09"/>
<polygon fill="grey" stroke="grey" stroke-width="2" points="1818.96,-14.59 1808.96,-18.11 1818.97,-21.59 1818.96,-14.59"/>
</g>
<!-- 61&#45;&gt;0 -->
<g id="edge31" class="edge">
<title>61&#45;&gt;0</title>
<path fill="none" stroke="grey" stroke-width="2" d="M2305.58,-80.29C2294.64,-77.26 2282.01,-74.1 2270.35,-72 2113.56,-43.76 1928.55,-29.8 1819.14,-23.51"/>
<polygon fill="grey" stroke="grey" stroke-width="2" points="1819.3,-20.01 1809.12,-22.94 1818.91,-27 1819.3,-20.01"/>
</g>
<!-- 62&#45;&gt;0 -->
<g id="edge32" class="edge">
<title>62&#45;&gt;0</title>
<path fill="none" stroke="grey" stroke-width="2" d="M3095.83,-80.12C3084.58,-76.99 3071.47,-73.8 3059.35,-72 2819.79,-36.35 2082.68,-23.59 1819.21,-20.1"/>
<polygon fill="grey" stroke="grey" stroke-width="2" points="1818.95,-16.6 1808.9,-19.97 1818.85,-23.6 1818.95,-16.6"/>
</g>
<!-- 63&#45;&gt;0 -->
<g id="edge33" class="edge">
<title>63&#45;&gt;0</title>
<path fill="none" stroke="grey" stroke-width="2" d="M3290.66,-80.63C3278.09,-77.34 3263.11,-73.89 3249.35,-72 2971.01,-33.77 2107,-22.51 1818.91,-19.77"/>
<polygon fill="grey" stroke="grey" stroke-width="2" points="1818.94,-16.27 1808.91,-19.67 1818.88,-23.27 1818.94,-16.27"/>
</g>
<!-- 64&#45;&gt;0 -->
<g id="edge34" class="edge">
<title>64&#45;&gt;0</title>
<path fill="none" stroke="grey" stroke-width="2" d="M2213.47,-143.9C2201.65,-123.07 2178.67,-88.59 2148.35,-72 2093.43,-41.94 1926.58,-28.48 1819.3,-22.8"/>
<polygon fill="grey" stroke="grey" stroke-width="2" points="1819.27,-19.29 1809.11,-22.27 1818.91,-26.28 1819.27,-19.29"/>
</g>
<!-- 65&#45;&gt;0 -->
<g id="edge35" class="edge">
<title>65&#45;&gt;0</title>
<path fill="none" stroke="grey" stroke-width="2" d="M2597.47,-143.97C2585.44,-122.86 2561.77,-87.76 2530.35,-72 2468.21,-40.83 2018.71,-26.15 1819.25,-21.11"/>
<polygon fill="grey" stroke="grey" stroke-width="2" points="1819.17,-17.61 1809.08,-20.86 1818.99,-24.61 1819.17,-17.61"/>
</g>
<!-- 66&#45;&gt;0 -->
<g id="edge36" class="edge">
<title>66&#45;&gt;0</title>
<path fill="none" stroke="grey" stroke-width="2" d="M2981.35,-143.86C2969.14,-122.64 2945.16,-87.41 2913.35,-72 2816.09,-24.89 2083.75,-19.38 1819.26,-18.94"/>
<polygon fill="grey" stroke="grey" stroke-width="2" points="1818.92,-15.44 1808.92,-18.93 1818.91,-22.44 1818.92,-15.44"/>
</g>
</g>
</svg>
